<?xml version="1.0" encoding="utf-8" standalone="no"?>
<!DOCTYPE svg PUBLIC "-//W3C//DTD SVG 1.1//EN"
  "http://www.w3.org/Graphics/SVG/1.1/DTD/svg11.dtd">
<svg xmlns:xlink="http://www.w3.org/1999/xlink" width="394.225443pt" height="351.556875pt" viewBox="0 0 394.225443 351.556875" xmlns="http://www.w3.org/2000/svg" version="1.1">
 <metadata>
  <rdf:RDF xmlns:dc="http://purl.org/dc/elements/1.1/" xmlns:cc="http://creativecommons.org/ns#" xmlns:rdf="http://www.w3.org/1999/02/22-rdf-syntax-ns#">
   <cc:Work>
    <dc:type rdf:resource="http://purl.org/dc/dcmitype/StillImage"/>
    <dc:date>2026-01-08T15:14:55.291479</dc:date>
    <dc:format>image/svg+xml</dc:format>
    <dc:creator>
     <cc:Agent>
      <dc:title>Matplotlib v3.10.6, https://matplotlib.org/</dc:title>
     </cc:Agent>
    </dc:creator>
   </cc:Work>
  </rdf:RDF>
 </metadata>
 <defs>
  <style type="text/css">*{stroke-linejoin: round; stroke-linecap: butt}</style>
 </defs>
 <g id="figure_1">
  <g id="patch_1">
   <path d="M 0 351.556875 
L 394.225443 351.556875 
L 394.225443 0 
L 0 0 
z
" style="fill: #ffffff"/>
  </g>
  <g id="axes_1">
   <g id="patch_2">
    <path d="M 37.7 99.555 
L 343.148243 99.555 
L 343.148243 20.25 
L 37.7 20.25 
z
" style="fill: #ffffff"/>
   </g>
   <g id="matplotlib.axis_1">
    <g id="xtick_1">
     <g id="line2d_1">
      <path d="M 190.424122 99.555 
L 190.424122 20.25 
" clip-path="url(#p4afb913ceb)" style="fill: none; stroke: #b0b0b0; stroke-opacity: 0.3; stroke-width: 0.8; stroke-linecap: square"/>
     </g>
     <g id="line2d_2">
      <defs>
       <path id="md43c1adf9a" d="M 0 0 
L 0 3.5 
" style="stroke: #000000; stroke-width: 0.8"/>
      </defs>
      <g>
       <use xlink:href="#md43c1adf9a" x="190.424122" y="99.555" style="stroke: #000000; stroke-width: 0.8"/>
      </g>
     </g>
    </g>
    <g id="xtick_2">
     <g id="line2d_3">
      <defs>
       <path id="m3acf30a572" d="M 0 0 
L 0 2 
" style="stroke: #000000; stroke-width: 0.6"/>
      </defs>
      <g>
       <use xlink:href="#m3acf30a572" x="37.7" y="99.555" style="stroke: #000000; stroke-width: 0.6"/>
      </g>
     </g>
    </g>
    <g id="xtick_3">
     <g id="line2d_4">
      <g>
       <use xlink:href="#m3acf30a572" x="76.175732" y="99.555" style="stroke: #000000; stroke-width: 0.6"/>
      </g>
     </g>
    </g>
    <g id="xtick_4">
     <g id="line2d_5">
      <g>
       <use xlink:href="#m3acf30a572" x="103.474699" y="99.555" style="stroke: #000000; stroke-width: 0.6"/>
      </g>
     </g>
    </g>
    <g id="xtick_5">
     <g id="line2d_6">
      <g>
       <use xlink:href="#m3acf30a572" x="124.649423" y="99.555" style="stroke: #000000; stroke-width: 0.6"/>
      </g>
     </g>
    </g>
    <g id="xtick_6">
     <g id="line2d_7">
      <g>
       <use xlink:href="#m3acf30a572" x="141.950431" y="99.555" style="stroke: #000000; stroke-width: 0.6"/>
      </g>
     </g>
    </g>
    <g id="xtick_7">
     <g id="line2d_8">
      <g>
       <use xlink:href="#m3acf30a572" x="156.578226" y="99.555" style="stroke: #000000; stroke-width: 0.6"/>
      </g>
     </g>
    </g>
    <g id="xtick_8">
     <g id="line2d_9">
      <g>
       <use xlink:href="#m3acf30a572" x="169.249398" y="99.555" style="stroke: #000000; stroke-width: 0.6"/>
      </g>
     </g>
    </g>
    <g id="xtick_9">
     <g id="line2d_10">
      <g>
       <use xlink:href="#m3acf30a572" x="180.426164" y="99.555" style="stroke: #000000; stroke-width: 0.6"/>
      </g>
     </g>
    </g>
    <g id="xtick_10">
     <g id="line2d_11">
      <g>
       <use xlink:href="#m3acf30a572" x="256.198821" y="99.555" style="stroke: #000000; stroke-width: 0.6"/>
      </g>
     </g>
    </g>
    <g id="xtick_11">
     <g id="line2d_12">
      <g>
       <use xlink:href="#m3acf30a572" x="294.674553" y="99.555" style="stroke: #000000; stroke-width: 0.6"/>
      </g>
     </g>
    </g>
    <g id="xtick_12">
     <g id="line2d_13">
      <g>
       <use xlink:href="#m3acf30a572" x="321.97352" y="99.555" style="stroke: #000000; stroke-width: 0.6"/>
      </g>
     </g>
    </g>
    <g id="xtick_13">
     <g id="line2d_14">
      <g>
       <use xlink:href="#m3acf30a572" x="343.148243" y="99.555" style="stroke: #000000; stroke-width: 0.6"/>
      </g>
     </g>
    </g>
   </g>
   <g id="matplotlib.axis_2">
    <g id="ytick_1">
     <g id="line2d_15">
      <path d="M 37.7 81.253846 
L 343.148243 81.253846 
" clip-path="url(#p4afb913ceb)" style="fill: none; stroke: #b0b0b0; stroke-opacity: 0.3; stroke-width: 0.8; stroke-linecap: square"/>
     </g>
     <g id="line2d_16">
      <defs>
       <path id="m0d0fceddf2" d="M 0 0 
L -3.5 0 
" style="stroke: #000000; stroke-width: 0.8"/>
      </defs>
      <g>
       <use xlink:href="#m0d0fceddf2" x="37.7" y="81.253846" style="stroke: #000000; stroke-width: 0.8"/>
      </g>
     </g>
     <g id="text_1">
      <text style="font-size: 10px; font-family: 'EB Garamond', serif; text-anchor: end" x="30.7" y="84.778846" transform="rotate(-0 30.7 84.778846)">0</text>
     </g>
    </g>
    <g id="ytick_2">
     <g id="line2d_17">
      <path d="M 37.7 50.751923 
L 343.148243 50.751923 
" clip-path="url(#p4afb913ceb)" style="fill: none; stroke: #b0b0b0; stroke-opacity: 0.3; stroke-width: 0.8; stroke-linecap: square"/>
     </g>
     <g id="line2d_18">
      <g>
       <use xlink:href="#m0d0fceddf2" x="37.7" y="50.751923" style="stroke: #000000; stroke-width: 0.8"/>
      </g>
     </g>
     <g id="text_2">
      <text style="font-size: 10px; font-family: 'EB Garamond', serif; text-anchor: end" x="30.7" y="54.276923" transform="rotate(-0 30.7 54.276923)">25</text>
     </g>
    </g>
    <g id="ytick_3">
     <g id="line2d_19">
      <path d="M 37.7 20.25 
L 343.148243 20.25 
" clip-path="url(#p4afb913ceb)" style="fill: none; stroke: #b0b0b0; stroke-opacity: 0.3; stroke-width: 0.8; stroke-linecap: square"/>
     </g>
     <g id="line2d_20">
      <g>
       <use xlink:href="#m0d0fceddf2" x="37.7" y="20.25" style="stroke: #000000; stroke-width: 0.8"/>
      </g>
     </g>
     <g id="text_3">
      <text style="font-size: 10px; font-family: 'EB Garamond', serif; text-anchor: end" x="30.7" y="23.775" transform="rotate(-0 30.7 23.775)">50</text>
     </g>
    </g>
    <g id="text_4">
     <text style="font-size: 10px; font-family: 'EB Garamond', serif; text-anchor: middle" x="14.25" y="59.9025" transform="rotate(-90 14.25 59.9025)">features</text>
    </g>
   </g>
   <g id="line2d_21">
    <path d="M 35.542186 68.877673 
L 39.26395 68.364124 
L 42.845237 60.655111 
L 46.296266 59.884041 
L 49.62618 56.22762 
L 52.843195 51.897551 
L 55.954714 49.975249 
L 58.967438 47.923572 
L 61.887447 47.029542 
L 64.72028 45.306863 
L 67.470989 45.349435 
L 70.144203 48.276867 
L 75.274795 50.735887 
L 77.739683 49.651032 
L 80.142161 51.344424 
L 82.485313 50.768627 
L 84.771998 52.033848 
L 87.004874 50.425371 
L 89.186414 49.666523 
L 91.318927 51.644682 
L 93.404568 50.035822 
L 95.445352 50.453033 
L 97.44317 52.511432 
L 99.399793 49.421332 
L 101.316885 50.01593 
L 103.196012 48.875598 
L 105.038649 46.646995 
L 106.846186 47.170335 
L 108.619936 48.586936 
L 110.361138 46.531703 
L 112.070965 46.926761 
L 113.750528 51.08881 
L 115.400879 54.02247 
L 117.023019 54.818796 
L 118.617894 56.253516 
L 120.186406 51.951964 
L 121.729413 49.784068 
L 123.24773 50.451723 
L 124.742137 49.291788 
L 126.213373 46.072613 
L 127.662146 44.826456 
L 129.089133 45.796156 
L 130.494979 48.358675 
L 133.245688 46.215395 
L 134.591708 47.705294 
L 135.918902 51.727034 
L 137.22779 51.678444 
L 138.518869 46.91344 
L 139.792617 46.241666 
L 141.049494 49.637581 
L 142.289941 53.336712 
L 143.514382 50.187608 
L 144.723224 49.446097 
L 145.91686 51.453838 
L 147.095668 56.601003 
L 148.260012 54.843875 
L 149.410242 50.211167 
L 150.546697 49.563351 
L 151.669702 53.641915 
L 152.779573 60.299296 
L 153.876612 55.902059 
L 154.961113 52.729924 
L 156.03336 53.035027 
L 158.142176 61.205639 
L 159.179267 58.368838 
L 160.205145 53.808878 
L 161.220051 52.015405 
L 162.224218 53.66947 
L 163.217869 58.219491 
L 164.201223 55.868135 
L 165.174492 49.897047 
L 166.137879 46.742532 
L 167.091584 46.539459 
L 168.035799 49.026651 
L 168.970711 53.163288 
L 169.896502 51.929235 
L 170.813348 49.006298 
L 171.721421 48.604671 
L 172.620885 49.866366 
L 173.511904 51.829855 
L 174.394635 54.28009 
L 175.269229 55.601918 
L 176.135837 53.157112 
L 176.994601 49.04824 
L 177.845664 48.221296 
L 178.689161 49.928053 
L 179.525227 52.358712 
L 180.35399 53.341026 
L 182.797718 47.069031 
L 183.598506 46.493748 
L 184.392593 47.864163 
L 185.180089 51.029382 
L 185.961105 54.815177 
L 186.735745 55.575417 
L 187.504112 52.19059 
L 188.266307 50.891838 
L 189.022429 51.735049 
L 189.772574 52.960399 
L 190.516836 55.574467 
L 191.255305 56.102782 
L 191.988072 53.075137 
L 192.715223 50.738679 
L 193.436845 48.814847 
L 194.153021 47.370573 
L 194.863832 47.029733 
L 195.569358 48.042027 
L 196.269678 49.840305 
L 196.964866 52.550948 
L 197.654999 54.157233 
L 199.020387 52.520375 
L 199.695784 52.374367 
L 200.366407 53.757237 
L 201.693601 59.942131 
L 202.350302 59.756143 
L 203.002489 58.0925 
L 204.932579 52.444585 
L 205.567316 51.209336 
L 206.197836 51.270276 
L 206.824193 51.931641 
L 207.446444 53.295903 
L 208.06464 53.726612 
L 208.678835 52.327671 
L 209.289081 50.1612 
L 209.895427 48.495076 
L 210.497923 48.371529 
L 211.096618 48.940681 
L 211.691559 50.125928 
L 212.282794 52.579749 
L 212.870367 56.035184 
L 213.454325 57.611635 
L 214.034711 57.659485 
L 215.184941 52.46283 
L 215.75487 50.889218 
L 216.321396 50.007215 
L 216.88456 51.03439 
L 217.444401 54.058335 
L 218.000959 58.523926 
L 218.554272 60.551855 
L 219.651311 66.190339 
L 220.195111 59.366319 
L 220.735812 57.376236 
L 221.27345 58.106314 
L 221.808059 57.928844 
L 222.339673 58.398213 
L 222.868325 61.915205 
L 223.916875 77.351736 
L 224.436837 71.520416 
L 224.953966 64.223005 
L 225.979844 56.654855 
L 226.488654 54.67384 
L 226.99475 54.156886 
L 227.498162 54.233192 
L 227.998917 55.262429 
L 228.497043 56.558366 
L 228.992568 58.857575 
L 229.485519 62.920062 
L 229.975922 65.351885 
L 230.949191 58.03587 
L 231.432107 56.788058 
L 231.912578 56.161951 
L 232.390628 54.481681 
L 232.866283 54.520337 
L 233.810498 57.507306 
L 234.279105 60.908106 
L 234.74541 67.609451 
L 235.209435 78.873871 
M 236.588047 85.828169 
L 237.04317 69.034391 
L 237.49612 63.574973 
L 237.946918 60.797463 
L 238.395584 59.938207 
L 238.84214 63.048028 
L 239.728995 77.637961 
L 240.169334 86.983338 
M 242.7693 80.124425 
L 243.195785 63.778219 
L 243.620363 58.688266 
L 244.043049 57.872267 
L 244.46386 59.759392 
L 244.882814 66.235791 
M 246.950277 85.385265 
L 247.358419 73.66835 
L 248.572417 59.73401 
L 248.973655 58.706267 
L 249.373205 58.358068 
L 249.771079 57.264595 
L 250.167292 56.822083 
L 250.561857 57.701527 
L 251.3461 64.512922 
L 251.735804 64.773641 
L 252.123914 66.206579 
L 252.510444 65.678787 
L 252.895405 64.115392 
L 253.278811 59.975678 
L 253.660674 57.637059 
L 254.041006 56.312394 
L 254.797128 55.956802 
L 255.172942 54.168459 
L 255.547273 55.78078 
L 255.920134 58.367425 
L 256.291535 62.073673 
L 257.030004 84.907611 
L 257.397095 73.237078 
L 258.127043 63.001097 
L 258.489922 59.049746 
L 258.851419 58.71022 
L 259.211544 62.36299 
L 259.570308 63.084877 
L 259.92772 61.857102 
L 260.638531 56.887899 
L 260.99195 56.060994 
L 262.044377 57.14682 
L 262.739565 55.626231 
L 263.085259 53.966212 
L 263.429698 52.877838 
L 263.772891 54.681233 
L 264.114848 55.340904 
L 264.795086 50.686257 
L 265.133385 49.577997 
L 265.470483 48.920139 
L 265.806387 48.842765 
L 266.141106 49.191455 
L 266.474649 50.286559 
L 266.807024 52.110424 
L 268.451655 57.213066 
L 269.101608 56.665254 
L 269.424923 57.00902 
L 269.74714 58.722636 
L 270.068267 62.344762 
L 270.38831 67.417206 
L 270.707278 62.163725 
L 271.025177 58.816851 
L 271.342015 59.150915 
L 271.657799 61.742447 
L 271.972535 65.296485 
L 272.28623 71.142833 
L 272.910527 93.589342 
L 273.221143 85.3576 
L 273.530744 96.009917 
L 273.839339 86.764318 
L 274.146934 69.782956 
L 274.453534 63.001784 
L 275.06378 59.365447 
L 275.670126 56.166589 
L 275.971852 54.606042 
L 276.272622 54.04579 
L 276.572442 54.16719 
L 276.871317 53.869895 
L 277.169254 53.27337 
L 277.466258 53.605905 
L 277.762336 54.825728 
L 278.057493 56.580836 
L 278.645066 62.640131 
L 278.937494 64.076817 
L 279.229024 64.344568 
L 279.519661 65.24597 
L 279.80941 67.996511 
L 280.098277 69.0552 
L 280.673387 61.818276 
L 280.95964 60.314832 
L 281.813255 57.889725 
L 282.378095 55.211068 
L 282.659259 55.235244 
L 283.2191 61.661988 
L 283.497787 66.594844 
L 283.775658 67.650225 
L 284.052718 66.001669 
L 284.328971 67.412068 
L 284.604422 72.21305 
L 284.879075 70.388619 
L 285.152937 69.621991 
L 285.42601 69.265996 
L 285.698299 67.11637 
L 286.240545 60.438967 
L 286.510511 58.829134 
L 286.779711 58.950758 
L 287.048149 60.523785 
L 287.31583 61.429495 
L 287.848937 57.713721 
L 288.379066 56.655934 
L 288.643024 57.181913 
L 289.430521 61.733024 
L 289.691574 61.734049 
L 290.211536 60.68676 
L 290.470453 61.113166 
L 290.728665 62.237357 
L 290.986176 62.461541 
L 291.24299 62.296575 
L 291.499111 61.545441 
L 292.769449 55.939884 
L 293.021489 56.43673 
L 293.272861 56.211626 
L 293.523569 56.319892 
L 294.271742 58.115376 
L 294.519828 58.589762 
L 295.505736 67.833947 
L 295.750621 68.309162 
L 295.994876 69.647759 
L 296.238503 69.453074 
L 296.481507 67.446386 
L 297.206806 57.305278 
L 297.447345 56.754232 
L 297.687277 56.552643 
L 297.926603 55.802568 
L 298.403453 53.451057 
L 298.640982 52.88208 
L 298.877918 53.260941 
L 299.350022 56.73665 
L 299.81979 57.553837 
L 300.287243 60.008419 
L 300.752405 58.214241 
L 300.984134 58.540237 
L 301.4459 60.073813 
L 301.675944 59.536571 
L 301.905431 59.895416 
L 302.362746 63.635363 
L 302.59058 63.697227 
L 302.817869 64.496452 
L 303.044614 69.456087 
L 303.270819 86.203751 
L 303.496485 84.192191 
L 303.721617 65.920162 
L 303.946215 62.286686 
L 304.170283 61.471064 
L 304.616839 56.653302 
L 304.839331 56.635619 
L 305.282756 58.678795 
L 305.724119 63.655125 
L 305.944033 64.738657 
L 306.163438 64.73686 
L 306.382338 64.137469 
L 306.818627 65.010164 
L 307.036022 64.387926 
L 307.469324 61.82669 
L 307.685235 62.889555 
L 307.900655 63.147961 
L 308.330035 61.786467 
L 308.757481 64.411429 
L 309.183011 61.629229 
L 309.395062 61.567923 
L 309.60664 61.719272 
L 309.817748 60.176289 
L 310.028387 59.796863 
L 310.238559 61.103483 
L 310.448267 63.255156 
L 310.657513 64.11033 
L 310.866298 67.438909 
L 311.074625 77.304872 
M 312.520245 84.363519 
L 312.724976 70.235057 
L 312.929267 66.898557 
L 313.133118 65.935391 
L 313.944173 58.267655 
L 314.547947 55.234797 
L 314.748354 55.422518 
L 314.948339 55.975589 
L 315.347049 58.42363 
L 315.744091 57.444143 
L 316.139478 59.173797 
L 316.336556 58.800329 
L 316.533225 60.04134 
L 317.120799 65.85232 
L 317.315851 66.486084 
L 317.704756 63.905946 
L 318.092075 66.558888 
L 318.285143 72.249214 
L 318.477818 82.444485 
L 318.670104 84.516357 
L 319.05351 66.531241 
L 319.435373 63.028394 
L 319.62573 62.849083 
L 319.815705 63.15591 
L 320.005301 63.006198 
L 320.194519 63.493432 
L 320.383361 64.398969 
L 320.75992 61.195786 
L 321.134991 56.532311 
L 321.321972 58.313829 
L 321.694833 63.892968 
L 321.880715 65.16899 
L 322.436187 79.391796 
L 322.620624 81.718982 
L 322.804703 76.85727 
L 323.171794 82.668153 
L 323.354808 82.922166 
L 323.719781 91.184632 
L 323.901742 86.726443 
L 324.083355 86.324 
L 324.445542 71.094658 
L 324.626118 66.230373 
L 324.806352 64.499929 
L 324.986243 65.327032 
L 325.165795 65.226059 
L 325.523881 67.623673 
L 325.702419 67.838983 
L 325.880622 69.630667 
L 326.05849 69.62357 
L 326.41323 63.190541 
L 326.590104 63.085924 
L 326.766649 62.685773 
L 326.942866 62.727136 
L 327.118756 63.40636 
L 327.64448 70.761345 
L 327.819076 76.186127 
L 327.993351 77.327594 
L 328.167307 79.543927 
L 328.514264 91.052651 
M 330.400182 94.196827 
L 330.569785 75.420627 
L 330.908084 68.294085 
L 331.245182 62.014139 
L 331.413283 61.929013 
L 331.581086 63.003185 
L 331.915805 61.516133 
L 332.082723 62.336992 
L 332.581723 71.347032 
L 332.747474 77.085826 
L 332.912937 75.811659 
L 333.242999 85.264526 
L 333.407601 98.583917 
M 335.842966 79.068971 
L 336.163009 68.471145 
L 336.799876 59.538479 
L 336.958427 60.50915 
L 337.274737 60.663321 
L 337.432498 61.421155 
L 337.747234 64.055408 
L 337.904211 63.138836 
L 338.060929 63.324046 
L 338.529537 78.257285 
M 341.293601 86.956924 
L 341.444825 74.829034 
L 341.746551 71.851748 
L 341.897055 72.853022 
L 342.047321 72.798198 
L 342.197349 69.84985 
L 342.347141 71.641799 
L 342.496696 75.781465 
L 342.795101 97.397339 
L 342.943953 116.61925 
L 343.092571 101.004823 
L 343.092571 101.004823 
" clip-path="url(#p4afb913ceb)" style="fill: none; stroke: #1f77b4; stroke-width: 1.5; stroke-linecap: square"/>
   </g>
   <g id="line2d_22">
    <path d="M 35.542186 81.607383 
L 39.26395 75.029886 
L 42.845237 67.444607 
L 46.296266 63.988057 
L 49.62618 58.517468 
L 52.843195 53.969872 
L 55.954714 50.526714 
L 58.967438 47.403602 
L 61.887447 47.293807 
L 64.72028 47.396365 
L 67.470989 47.298517 
L 70.144203 49.401635 
L 72.74417 48.574761 
L 75.274795 52.177312 
L 77.739683 52.911681 
L 80.142161 52.635502 
L 82.485313 48.712507 
L 84.771998 49.692608 
L 87.004874 51.833942 
L 89.186414 50.918542 
L 91.318927 54.464235 
L 93.404568 51.455795 
L 95.445352 52.082184 
L 97.44317 52.449123 
L 99.399793 48.577837 
L 101.316885 49.887769 
L 103.196012 49.693369 
L 105.038649 45.792177 
L 106.846186 46.358596 
L 108.619936 49.593501 
L 110.361138 47.123811 
L 112.070965 47.074821 
L 113.750528 50.594682 
L 115.400879 50.095622 
L 117.023019 48.806227 
L 118.617894 52.085987 
L 120.186406 54.094298 
L 121.729413 48.020859 
L 123.24773 47.948582 
L 124.742137 52.552803 
L 126.213373 47.206617 
L 127.662146 45.130944 
L 129.089133 46.692309 
L 130.494979 50.587931 
L 131.8803 46.068024 
L 133.245688 44.478134 
L 134.591708 46.019343 
L 135.918902 52.518667 
L 137.22779 54.435327 
L 138.518869 48.244928 
L 139.792617 47.094406 
L 141.049494 50.56191 
L 142.289941 57.992181 
L 143.514382 51.094539 
L 144.723224 48.945477 
L 145.91686 51.241503 
L 147.095668 63.184043 
L 148.260012 60.104819 
L 149.410242 50.36865 
L 150.546697 48.5947 
L 151.669702 52.043033 
L 152.779573 65.118523 
L 154.961113 52.0745 
L 156.03336 51.295306 
L 157.093626 54.445999 
L 158.142176 68.786939 
L 159.179267 67.168035 
L 160.205145 53.245102 
L 161.220051 49.907907 
L 162.224218 51.120563 
L 163.217869 58.109695 
L 164.201223 63.046627 
L 165.174492 51.963599 
L 166.137879 47.366578 
L 167.091584 47.136745 
L 168.035799 50.187026 
L 168.970711 55.537617 
L 169.896502 55.92258 
L 171.721421 47.440626 
L 172.620885 47.333174 
L 173.511904 51.523379 
L 174.394635 59.841118 
L 175.269229 65.631723 
L 176.135837 56.142792 
L 176.994601 50.33984 
L 177.845664 48.377659 
L 178.689161 50.252699 
L 179.525227 56.663188 
L 180.35399 58.53016 
L 181.175578 55.878995 
L 181.990114 48.392648 
L 182.797718 46.008619 
L 183.598506 46.119625 
L 184.392593 48.267961 
L 185.180089 54.354795 
L 185.961105 57.382349 
L 186.735745 56.629394 
L 188.266307 47.193764 
L 189.022429 46.483932 
L 189.772574 48.803488 
L 190.516836 52.433808 
L 191.255305 52.567603 
L 191.988072 52.967245 
L 193.436845 44.807341 
L 194.153021 43.876024 
L 194.863832 45.514783 
L 195.569358 49.501787 
L 196.964866 55.959683 
L 197.654999 56.987829 
L 198.340149 53.765445 
L 199.020387 48.239559 
L 199.695784 47.302675 
L 200.366407 50.006079 
L 201.032325 56.815165 
L 201.693601 69.285501 
M 203.002489 98.472495 
L 203.650224 69.461002 
L 204.293568 57.189744 
L 204.932579 53.037377 
L 205.567316 53.788613 
L 206.197836 57.706362 
L 206.824193 62.76893 
L 208.06464 80.054918 
L 208.678835 66.761672 
L 209.289081 58.405243 
L 209.895427 53.78372 
L 210.497923 52.263606 
L 211.096618 51.285907 
L 211.691559 52.916265 
L 212.282794 59.266151 
L 213.454325 81.705981 
L 214.034711 72.937968 
L 214.611569 58.895777 
L 215.184941 51.690322 
L 215.75487 49.588016 
L 216.321396 49.704676 
L 216.88456 50.210255 
L 217.444401 53.47917 
L 218.000959 61.15635 
L 218.554272 72.814612 
L 219.104376 76.293323 
L 219.651311 63.024704 
L 220.195111 56.483391 
L 221.27345 50.062121 
L 221.808059 49.243596 
L 222.339673 49.505922 
L 222.868325 51.968258 
L 223.916875 60.51164 
L 224.436837 61.462247 
L 224.953966 60.560766 
L 225.468291 60.311166 
L 225.979844 54.089067 
L 226.488654 51.702255 
L 226.99475 52.156428 
L 227.498162 50.854702 
L 227.998917 50.51446 
L 228.497043 52.043978 
L 228.992568 54.571205 
L 229.485519 56.278442 
L 229.975922 60.539356 
L 230.463804 66.473508 
L 230.949191 61.095836 
L 231.432107 57.779317 
L 231.912578 53.130934 
L 232.390628 50.321475 
L 232.866283 51.098114 
L 233.339565 53.644579 
L 234.74541 65.803579 
L 235.209435 74.451332 
L 235.671201 80.008917 
L 236.588047 61.762642 
L 237.04317 57.686219 
L 237.49612 55.128199 
L 237.946918 51.849063 
L 238.395584 51.229844 
L 238.84214 55.763347 
L 239.286603 69.56938 
L 239.728995 69.66007 
L 240.169334 71.268591 
L 240.607639 85.75188 
M 242.340889 65.038275 
L 242.7693 58.539776 
L 243.195785 59.909402 
L 243.620363 58.864166 
L 244.043049 53.841937 
L 244.46386 54.220195 
L 244.882814 62.018522 
M 247.358419 63.12772 
L 248.169474 56.254905 
L 248.572417 55.853637 
L 248.973655 54.522906 
L 249.373205 54.665995 
L 249.771079 52.086973 
L 250.167292 51.541035 
L 250.561857 54.11999 
L 250.954788 61.45033 
L 251.3461 65.999923 
L 251.735804 65.816023 
L 252.123914 70.749846 
L 252.510444 65.354174 
L 252.895405 56.208619 
L 253.278811 54.431394 
L 253.660674 55.374247 
L 254.041006 55.230588 
L 254.41982 54.375704 
L 254.797128 52.462946 
L 255.547273 51.30586 
L 255.920134 54.486263 
L 256.291535 65.600206 
L 256.661488 69.170804 
L 257.030004 68.559375 
L 257.397095 75.509967 
M 258.127043 91.485108 
L 258.489922 75.258606 
L 258.851419 65.344422 
L 259.211544 60.741484 
L 259.570308 59.759189 
L 259.92772 55.982652 
L 260.283791 55.436118 
L 260.638531 57.095477 
L 260.99195 57.506333 
L 261.344057 63.848854 
L 261.694863 84.836515 
M 262.739565 89.6733 
L 263.085259 69.109772 
L 263.429698 60.494278 
L 263.772891 60.597029 
L 264.114848 65.527188 
L 264.455577 58.167282 
L 264.795086 54.738043 
L 265.470483 50.822469 
L 266.141106 51.58986 
L 266.474649 52.694329 
L 267.138238 57.350591 
L 268.125001 70.689584 
L 268.451655 78.143095 
L 268.777188 67.625203 
L 269.101608 68.428731 
L 269.74714 92.994216 
M 270.707278 65.862769 
L 271.025177 59.61616 
L 271.657799 57.255696 
L 271.972535 56.880515 
L 272.28623 62.330882 
M 274.146934 81.057825 
L 274.453534 64.484333 
L 274.759148 59.042297 
L 275.06378 59.706243 
L 275.367437 66.103077 
L 275.670126 62.03691 
L 275.971852 53.756548 
L 276.272622 50.50457 
L 276.572442 51.03769 
L 276.871317 51.33971 
L 277.169254 51.861872 
L 277.762336 54.870036 
L 278.057493 57.686801 
L 278.645066 73.955757 
L 278.937494 76.053442 
L 279.229024 72.004926 
L 279.519661 64.564548 
L 279.80941 67.651367 
L 280.098277 66.05421 
L 280.386268 62.390258 
L 280.673387 64.377756 
L 281.245033 56.066684 
L 281.813255 53.434506 
L 282.096095 54.053781 
L 282.378095 56.584788 
L 282.659259 55.42394 
L 282.939592 55.802582 
L 283.2191 59.999708 
L 283.497787 67.114495 
L 283.775658 71.239545 
L 284.052718 86.99876 
M 285.152937 78.918531 
L 285.42601 74.367708 
L 285.698299 65.37516 
L 286.510511 60.073336 
L 286.779711 60.638331 
L 287.582758 54.554592 
L 287.848937 55.263856 
L 288.114372 53.400195 
L 288.379066 53.222816 
L 288.643024 56.544249 
L 289.168747 66.639837 
L 289.951911 71.463754 
L 290.470453 61.349985 
L 290.728665 63.519556 
L 290.986176 69.170752 
L 291.24299 71.916069 
L 291.499111 62.980961 
L 291.754543 58.766925 
L 292.009289 61.023451 
L 292.263353 60.016992 
L 292.516739 59.612835 
L 292.769449 61.117192 
L 293.021489 61.203726 
L 293.272861 56.943342 
L 293.523569 55.715486 
L 294.023006 60.78179 
L 294.271742 63.337784 
L 294.519828 71.525402 
M 297.447345 73.491183 
L 297.687277 70.399892 
L 297.926603 70.200312 
L 298.165327 56.063042 
L 298.403453 52.645659 
L 298.640982 52.486113 
L 299.114264 54.923551 
L 299.350022 54.059508 
L 299.585197 56.364566 
L 300.053804 69.232892 
L 300.287243 88.843906 
M 303.270819 73.876846 
L 303.496485 61.797093 
L 304.170283 49.753815 
L 304.393824 50.787035 
L 304.839331 59.263294 
L 305.503694 72.345141 
L 305.724119 84.83986 
M 306.163438 87.146466 
L 306.382338 65.462392 
L 306.600733 67.415158 
L 306.818627 84.400231 
M 307.25292 79.700368 
L 307.469324 68.626271 
L 307.685235 68.285188 
L 307.900655 66.194995 
L 308.115588 58.970878 
L 308.330035 58.534796 
L 308.970484 66.671985 
L 309.183011 66.700276 
L 309.395062 62.10981 
L 309.60664 62.557067 
L 309.817748 67.243894 
L 310.028387 66.271295 
L 310.238559 62.997212 
L 310.448267 65.197598 
L 310.657513 91.037579 
M 312.109453 105.050959 
L 312.520245 72.18245 
L 312.724976 63.953504 
L 312.929267 65.512222 
L 313.133118 68.02629 
L 313.336533 60.509874 
L 313.539512 61.104281 
L 313.742058 66.477289 
L 314.145858 58.346709 
L 314.347116 58.629307 
L 314.948339 53.175527 
L 315.147904 56.917923 
L 315.347049 56.850132 
L 315.545778 55.626231 
L 315.744091 55.512671 
L 315.941991 54.775365 
L 316.139478 55.34043 
L 316.336556 58.158041 
L 316.533225 65.954726 
M 317.704756 76.768947 
L 317.898613 71.327843 
L 318.092075 80.070815 
M 318.670104 96.556784 
L 318.862 65.983606 
L 319.05351 61.756238 
L 319.435373 72.193224 
L 319.62573 67.918937 
L 319.815705 67.524716 
L 320.005301 68.945108 
L 320.571827 54.373128 
L 320.75992 53.3823 
L 320.947641 55.19256 
L 321.134991 59.065591 
L 321.321972 59.305824 
L 321.508586 57.437607 
L 321.694833 59.226181 
L 321.880715 72.792229 
M 322.988426 96.372687 
L 323.171794 69.214068 
L 323.354808 66.820109 
L 323.53747 77.031812 
M 324.445542 86.711345 
L 324.626118 71.167322 
L 324.806352 69.409077 
L 324.986243 64.38553 
L 325.165795 66.379053 
L 325.345007 62.210391 
L 325.523881 62.812528 
L 325.702419 62.423004 
L 325.880622 58.193762 
L 326.05849 59.327973 
L 326.236026 64.550236 
L 326.41323 66.3623 
L 326.590104 66.365237 
L 326.766649 63.01762 
L 326.942866 63.921571 
L 327.294321 84.22248 
M 330.739086 85.336959 
L 331.076783 75.660443 
L 331.245182 82.199507 
L 331.413283 75.350985 
L 331.581086 76.665165 
L 331.748593 83.91297 
L 331.915805 74.262603 
L 332.082723 73.781868 
L 332.415681 84.032359 
L 332.581723 80.699944 
L 332.747474 88.078125 
M 336.003122 74.742061 
L 336.163009 65.820131 
L 336.322627 68.543135 
L 336.481977 80.669907 
L 336.958427 58.376126 
L 337.116714 59.405571 
L 337.589996 75.667337 
L 337.904211 63.375057 
L 338.217389 71.379288 
L 338.373591 70.663925 
L 338.529537 78.097197 
L 338.685226 95.786942 
L 338.995842 79.635695 
M 341.444825 70.399572 
L 341.595808 68.981756 
L 341.746551 86.471461 
L 341.897055 83.99758 
L 342.197349 64.634902 
L 342.496696 70.821823 
L 342.646016 66.430842 
L 342.795101 65.931019 
L 342.943953 63.503915 
L 343.240957 67.995771 
L 343.240957 67.995771 
" clip-path="url(#p4afb913ceb)" style="fill: none; stroke: #ff7f0e; stroke-width: 1.5; stroke-linecap: square"/>
   </g>
   <g id="patch_3">
    <path d="M 37.7 99.555 
L 37.7 20.25 
" style="fill: none; stroke: #000000; stroke-width: 0.8; stroke-linejoin: miter; stroke-linecap: square"/>
   </g>
   <g id="patch_4">
    <path d="M 343.148243 99.555 
L 343.148243 20.25 
" style="fill: none; stroke: #000000; stroke-width: 0.8; stroke-linejoin: miter; stroke-linecap: square"/>
   </g>
   <g id="patch_5">
    <path d="M 37.7 99.555 
L 343.148243 99.555 
" style="fill: none; stroke: #000000; stroke-width: 0.8; stroke-linejoin: miter; stroke-linecap: square"/>
   </g>
   <g id="patch_6">
    <path d="M 37.7 20.25 
L 343.148243 20.25 
" style="fill: none; stroke: #000000; stroke-width: 0.8; stroke-linejoin: miter; stroke-linecap: square"/>
   </g>
   <g id="text_5">
    <text style="font-size: 10px; font-family: 'EB Garamond', serif; text-anchor: middle" x="190.424122" y="14.25" transform="rotate(-0 190.424122 14.25)">violin = Klimke</text>
   </g>
  </g>
  <g id="axes_2">
   <g id="patch_7">
    <path d="M 37.7 206.55125 
L 343.148243 206.55125 
L 343.148243 127.24625 
L 37.7 127.24625 
z
" style="fill: #ffffff"/>
   </g>
   <g id="matplotlib.axis_3">
    <g id="xtick_14">
     <g id="line2d_23">
      <path d="M 190.424122 206.55125 
L 190.424122 127.24625 
" clip-path="url(#p5352a31111)" style="fill: none; stroke: #b0b0b0; stroke-opacity: 0.3; stroke-width: 0.8; stroke-linecap: square"/>
     </g>
     <g id="line2d_24">
      <g>
       <use xlink:href="#md43c1adf9a" x="190.424122" y="206.55125" style="stroke: #000000; stroke-width: 0.8"/>
      </g>
     </g>
    </g>
    <g id="xtick_15">
     <g id="line2d_25">
      <g>
       <use xlink:href="#m3acf30a572" x="37.7" y="206.55125" style="stroke: #000000; stroke-width: 0.6"/>
      </g>
     </g>
    </g>
    <g id="xtick_16">
     <g id="line2d_26">
      <g>
       <use xlink:href="#m3acf30a572" x="76.175732" y="206.55125" style="stroke: #000000; stroke-width: 0.6"/>
      </g>
     </g>
    </g>
    <g id="xtick_17">
     <g id="line2d_27">
      <g>
       <use xlink:href="#m3acf30a572" x="103.474699" y="206.55125" style="stroke: #000000; stroke-width: 0.6"/>
      </g>
     </g>
    </g>
    <g id="xtick_18">
     <g id="line2d_28">
      <g>
       <use xlink:href="#m3acf30a572" x="124.649423" y="206.55125" style="stroke: #000000; stroke-width: 0.6"/>
      </g>
     </g>
    </g>
    <g id="xtick_19">
     <g id="line2d_29">
      <g>
       <use xlink:href="#m3acf30a572" x="141.950431" y="206.55125" style="stroke: #000000; stroke-width: 0.6"/>
      </g>
     </g>
    </g>
    <g id="xtick_20">
     <g id="line2d_30">
      <g>
       <use xlink:href="#m3acf30a572" x="156.578226" y="206.55125" style="stroke: #000000; stroke-width: 0.6"/>
      </g>
     </g>
    </g>
    <g id="xtick_21">
     <g id="line2d_31">
      <g>
       <use xlink:href="#m3acf30a572" x="169.249398" y="206.55125" style="stroke: #000000; stroke-width: 0.6"/>
      </g>
     </g>
    </g>
    <g id="xtick_22">
     <g id="line2d_32">
      <g>
       <use xlink:href="#m3acf30a572" x="180.426164" y="206.55125" style="stroke: #000000; stroke-width: 0.6"/>
      </g>
     </g>
    </g>
    <g id="xtick_23">
     <g id="line2d_33">
      <g>
       <use xlink:href="#m3acf30a572" x="256.198821" y="206.55125" style="stroke: #000000; stroke-width: 0.6"/>
      </g>
     </g>
    </g>
    <g id="xtick_24">
     <g id="line2d_34">
      <g>
       <use xlink:href="#m3acf30a572" x="294.674553" y="206.55125" style="stroke: #000000; stroke-width: 0.6"/>
      </g>
     </g>
    </g>
    <g id="xtick_25">
     <g id="line2d_35">
      <g>
       <use xlink:href="#m3acf30a572" x="321.97352" y="206.55125" style="stroke: #000000; stroke-width: 0.6"/>
      </g>
     </g>
    </g>
    <g id="xtick_26">
     <g id="line2d_36">
      <g>
       <use xlink:href="#m3acf30a572" x="343.148243" y="206.55125" style="stroke: #000000; stroke-width: 0.6"/>
      </g>
     </g>
    </g>
   </g>
   <g id="matplotlib.axis_4">
    <g id="ytick_4">
     <g id="line2d_37">
      <path d="M 37.7 188.250096 
L 343.148243 188.250096 
" clip-path="url(#p5352a31111)" style="fill: none; stroke: #b0b0b0; stroke-opacity: 0.3; stroke-width: 0.8; stroke-linecap: square"/>
     </g>
     <g id="line2d_38">
      <g>
       <use xlink:href="#m0d0fceddf2" x="37.7" y="188.250096" style="stroke: #000000; stroke-width: 0.8"/>
      </g>
     </g>
     <g id="text_6">
      <text style="font-size: 10px; font-family: 'EB Garamond', serif; text-anchor: end" x="30.7" y="191.775096" transform="rotate(-0 30.7 191.775096)">0</text>
     </g>
    </g>
    <g id="ytick_5">
     <g id="line2d_39">
      <path d="M 37.7 157.748173 
L 343.148243 157.748173 
" clip-path="url(#p5352a31111)" style="fill: none; stroke: #b0b0b0; stroke-opacity: 0.3; stroke-width: 0.8; stroke-linecap: square"/>
     </g>
     <g id="line2d_40">
      <g>
       <use xlink:href="#m0d0fceddf2" x="37.7" y="157.748173" style="stroke: #000000; stroke-width: 0.8"/>
      </g>
     </g>
     <g id="text_7">
      <text style="font-size: 10px; font-family: 'EB Garamond', serif; text-anchor: end" x="30.7" y="161.273173" transform="rotate(-0 30.7 161.273173)">25</text>
     </g>
    </g>
    <g id="ytick_6">
     <g id="line2d_41">
      <path d="M 37.7 127.24625 
L 343.148243 127.24625 
" clip-path="url(#p5352a31111)" style="fill: none; stroke: #b0b0b0; stroke-opacity: 0.3; stroke-width: 0.8; stroke-linecap: square"/>
     </g>
     <g id="line2d_42">
      <g>
       <use xlink:href="#m0d0fceddf2" x="37.7" y="127.24625" style="stroke: #000000; stroke-width: 0.8"/>
      </g>
     </g>
     <g id="text_8">
      <text style="font-size: 10px; font-family: 'EB Garamond', serif; text-anchor: end" x="30.7" y="130.77125" transform="rotate(-0 30.7 130.77125)">50</text>
     </g>
    </g>
    <g id="text_9">
     <text style="font-size: 10px; font-family: 'EB Garamond', serif; text-anchor: middle" x="14.25" y="166.89875" transform="rotate(-90 14.25 166.89875)">features</text>
    </g>
   </g>
   <g id="line2d_43">
    <path d="M 27.629869 198.397718 
L 31.668471 166.860332 
L 35.542186 168.411564 
L 39.26395 165.884685 
L 42.845237 163.279816 
L 46.296266 168.247428 
L 49.62618 166.248236 
L 52.843195 159.992775 
L 55.954714 157.455069 
L 58.967438 155.260912 
L 61.887447 153.775551 
L 64.72028 151.878768 
L 67.470989 152.192065 
L 70.144203 154.528111 
L 72.74417 155.304173 
L 75.274795 156.994184 
L 77.739683 156.285697 
L 80.142161 157.792775 
L 82.485313 157.099293 
L 84.771998 158.338357 
L 87.004874 157.088225 
L 89.186414 156.305973 
L 91.318927 157.487802 
L 93.404568 155.689196 
L 95.445352 155.865256 
L 97.44317 156.268623 
L 99.399793 154.177536 
L 101.316885 155.361298 
L 103.196012 154.764013 
L 105.038649 153.322006 
L 108.619936 155.624216 
L 110.361138 153.497328 
L 112.070965 154.055986 
L 113.750528 157.707183 
L 117.023019 159.42967 
L 118.617894 160.91945 
L 120.186406 157.276865 
L 121.729413 155.447893 
L 123.24773 155.755188 
L 124.742137 155.081042 
L 126.213373 152.79289 
L 127.662146 151.900988 
L 129.089133 152.757358 
L 130.494979 154.992242 
L 133.245688 153.355833 
L 134.591708 154.96141 
L 135.918902 158.723275 
L 137.22779 157.260629 
L 138.518869 153.158315 
L 139.792617 153.063175 
L 141.049494 156.811908 
L 142.289941 159.381087 
L 143.514382 156.273468 
L 144.723224 155.680266 
L 145.91686 158.24607 
L 147.095668 163.61156 
L 148.260012 161.873912 
L 149.410242 157.276193 
L 150.546697 157.011917 
L 151.669702 161.425336 
L 152.779573 168.247316 
L 153.876612 161.661836 
L 154.961113 159.065682 
L 156.03336 160.474417 
L 157.093626 166.411318 
L 158.142176 168.426983 
L 160.205145 159.488099 
L 161.220051 158.016066 
L 162.224218 159.512452 
L 163.217869 163.587474 
L 164.201223 162.425962 
L 165.174492 156.857178 
L 166.137879 154.326681 
L 167.091584 154.743397 
L 168.035799 157.655317 
L 168.970711 161.019855 
L 170.813348 155.227746 
L 171.721421 155.034523 
L 172.620885 156.308805 
L 174.394635 159.987125 
L 175.269229 159.174912 
L 176.135837 155.940268 
L 176.994601 153.872366 
L 177.845664 154.163867 
L 178.689161 155.599118 
L 179.525227 158.089339 
L 180.35399 160.990759 
L 181.175578 158.889191 
L 181.990114 156.419643 
L 182.797718 155.305399 
L 183.598506 155.161267 
L 184.392593 156.188903 
L 185.180089 158.984172 
L 185.961105 161.343412 
L 186.735745 160.227406 
L 187.504112 157.62893 
L 188.266307 157.230684 
L 189.022429 157.619272 
L 189.772574 158.136508 
L 191.255305 162.016597 
L 191.988072 162.17508 
L 193.436845 158.890811 
L 194.153021 158.104775 
L 194.863832 158.121996 
L 195.569358 158.837764 
L 196.269678 160.816193 
L 196.964866 163.945549 
L 197.654999 163.278418 
L 199.020387 157.765692 
L 199.695784 156.921185 
L 200.366407 157.437406 
L 203.002489 162.495877 
L 203.650224 163.367832 
L 204.932579 158.127341 
L 205.567316 157.086598 
L 206.197836 157.466474 
L 206.824193 158.099409 
L 207.446444 157.876834 
L 208.06464 158.448047 
L 209.289081 158.173788 
L 209.895427 158.616677 
L 210.497923 157.315428 
L 211.096618 156.442863 
L 211.691559 157.853822 
L 212.282794 161.2538 
L 212.870367 165.660705 
L 213.454325 166.867806 
L 214.034711 167.022494 
L 215.184941 163.999147 
L 215.75487 163.181803 
L 216.321396 162.839326 
L 216.88456 166.201792 
L 217.444401 172.769007 
L 218.000959 185.68226 
M 219.104376 185.461814 
L 219.651311 167.368568 
L 220.195111 165.639645 
L 220.735812 166.722043 
L 221.27345 164.301232 
L 221.808059 162.428542 
L 222.339673 161.988357 
L 222.868325 164.708677 
L 223.394048 169.385649 
L 223.916875 181.264205 
L 224.436837 179.899507 
L 224.953966 169.679108 
L 225.468291 164.098543 
L 225.979844 160.194396 
L 226.488654 158.346297 
L 227.498162 156.114801 
L 227.998917 156.422092 
L 228.497043 157.479892 
L 229.485519 160.538376 
L 229.975922 160.930075 
L 230.463804 160.533345 
L 230.949191 159.457972 
L 231.432107 159.305616 
L 231.912578 159.515205 
L 232.390628 158.975199 
L 232.866283 158.936189 
L 233.339565 159.54647 
L 233.810498 160.353761 
L 234.74541 163.864657 
L 235.209435 167.258917 
L 235.671201 169.228166 
L 236.130732 168.731408 
L 236.588047 166.384316 
L 237.946918 164.059436 
L 238.395584 164.202223 
L 238.84214 163.983055 
L 239.286603 165.78939 
L 239.728995 172.146048 
L 240.169334 175.619671 
L 240.607639 183.799513 
L 241.043928 223.137304 
L 241.478221 184.851862 
L 241.910536 175.687775 
L 242.340889 174.176255 
L 242.7693 170.826665 
L 243.195785 166.085054 
L 243.620363 163.693046 
L 244.043049 164.544043 
L 244.46386 167.889679 
L 244.882814 175.457308 
M 246.950277 181.165506 
L 247.764813 169.078053 
L 248.169474 165.252702 
L 248.572417 162.550094 
L 248.973655 161.359809 
L 249.373205 161.502738 
L 249.771079 163.059476 
L 250.167292 166.036178 
L 250.561857 167.853455 
L 250.954788 171.85889 
L 251.3461 178.392987 
L 252.123914 170.132364 
L 252.510444 169.221143 
L 252.895405 166.142681 
L 253.278811 161.489876 
L 253.660674 159.28302 
L 254.041006 159.492832 
L 254.41982 160.060331 
L 254.797128 158.998696 
L 255.172942 158.58928 
L 255.920134 162.081502 
L 257.030004 167.753333 
L 257.397095 170.82872 
L 257.762771 169.131318 
L 258.127043 163.713085 
L 258.489922 161.416665 
L 259.211544 162.367695 
L 259.570308 162.370039 
L 259.92772 162.90368 
L 260.283791 161.441744 
L 260.638531 159.461891 
L 260.99195 159.377063 
L 261.344057 160.833507 
L 261.694863 161.613604 
L 262.044377 162.899478 
L 262.392608 165.137201 
L 263.085259 167.704748 
L 263.772891 170.137478 
L 264.114848 168.747339 
L 264.455577 166.500167 
L 265.133385 159.328978 
L 265.470483 158.666098 
L 265.806387 158.678017 
L 266.141106 158.075751 
L 266.474649 158.644837 
L 266.807024 161.08884 
L 267.138238 162.217892 
L 267.4683 162.481426 
L 267.797219 163.713497 
L 268.125001 166.32093 
L 268.451655 167.242751 
L 268.777188 165.74928 
L 269.101608 166.159962 
L 269.424923 165.164602 
L 270.38831 161.225642 
L 271.025177 160.355737 
L 271.342015 161.992616 
L 271.657799 164.402275 
L 271.972535 164.606384 
L 272.28623 167.024212 
L 273.221143 179.285604 
L 273.530744 185.700487 
M 275.06378 194.553515 
L 275.367437 186.937875 
L 275.670126 194.624098 
L 276.272622 175.909001 
L 276.572442 172.065493 
L 277.169254 170.488571 
L 277.466258 168.806378 
L 277.762336 169.178348 
L 278.645066 176.852083 
L 278.937494 177.445526 
L 279.229024 176.729172 
L 279.519661 178.167475 
L 279.80941 175.031467 
L 280.098277 173.564821 
L 280.386268 173.533125 
L 280.673387 174.460845 
L 280.95964 173.971857 
L 281.529569 169.766776 
L 281.813255 167.14144 
L 282.096095 165.670614 
L 282.378095 166.279903 
L 282.659259 167.927529 
L 282.939592 168.847228 
L 283.2191 167.295641 
L 283.497787 167.490921 
L 283.775658 169.51095 
L 284.052718 170.417176 
L 284.328971 172.51476 
L 284.604422 175.93679 
L 284.879075 177.075922 
L 285.42601 168.623847 
L 285.698299 164.80407 
L 285.96981 163.624941 
L 286.240545 163.86259 
L 286.779711 168.759567 
L 287.31583 163.617713 
L 287.848937 162.072138 
L 288.114372 161.006446 
L 288.379066 162.092882 
L 288.90625 165.467229 
L 289.168747 166.309919 
L 289.691574 172.380215 
L 289.951911 175.810839 
L 290.211536 176.02647 
L 290.728665 171.00353 
L 291.24299 173.355813 
L 291.499111 173.402256 
L 291.754543 173.898 
L 292.516739 168.603904 
L 292.769449 168.995444 
L 293.021489 167.746712 
L 293.523569 162.482138 
L 293.773616 162.176006 
L 294.023006 162.600353 
L 294.271742 162.634482 
L 294.519828 162.985818 
L 294.767267 163.921168 
L 295.014063 165.408258 
L 295.260218 168.078984 
L 295.505736 168.351408 
L 295.750621 169.146676 
L 295.994876 171.467268 
L 296.238503 169.628315 
L 296.72389 163.650604 
L 296.965655 161.943116 
L 297.206806 161.261938 
L 297.687277 159.516264 
L 297.926603 159.209432 
L 298.403453 157.79761 
L 298.877918 156.214027 
L 299.114264 156.314032 
L 300.287243 161.080086 
L 300.520109 161.196118 
L 300.752405 162.48884 
L 300.984134 164.754598 
L 302.134364 167.433022 
L 302.59058 162.846387 
L 302.817869 163.019687 
L 303.044614 163.520321 
L 303.496485 161.496839 
L 303.721617 160.294092 
L 303.946215 161.441007 
L 304.393824 164.485621 
L 304.616839 165.316865 
L 304.839331 167.079401 
L 305.282756 174.630696 
L 305.503694 180.255075 
L 305.944033 176.94819 
L 306.163438 177.395446 
L 306.382338 175.840078 
L 306.600733 175.48943 
L 306.818627 176.883778 
L 307.036022 175.658682 
L 307.469324 171.527362 
L 307.685235 170.2623 
L 307.900655 171.213737 
L 308.330035 175.661997 
L 308.543999 178.239535 
L 308.757481 178.358007 
L 308.970484 177.440188 
L 309.817748 167.039559 
L 310.028387 166.002933 
L 310.238559 166.447325 
L 310.448267 166.349514 
L 310.657513 166.643941 
L 310.866298 165.955176 
L 311.074625 166.476375 
L 311.282495 168.389128 
L 311.696875 168.977562 
L 311.903388 168.546103 
L 312.109453 170.163188 
L 312.315071 173.326852 
L 312.520245 173.323757 
L 312.724976 171.834195 
L 312.929267 171.858522 
L 313.133118 171.119282 
L 314.145858 164.078711 
L 314.347116 164.17198 
L 314.547947 164.587658 
L 314.748354 164.093333 
L 315.147904 165.426312 
L 315.347049 166.397939 
L 315.545778 168.246045 
L 316.139478 178.990068 
L 316.336556 178.290112 
L 316.729487 170.157798 
L 316.925345 170.396602 
L 317.120799 173.650115 
L 317.704756 176.432159 
L 318.092075 180.766599 
L 318.285143 180.893753 
L 318.477818 178.222447 
L 318.670104 177.72345 
L 318.862 179.626249 
L 319.05351 183.469846 
L 319.244633 180.777738 
L 319.62573 169.53382 
L 319.815705 169.003489 
L 320.005301 169.022798 
L 320.194519 168.690594 
L 320.383361 168.130679 
L 320.75992 172.000793 
L 320.947641 169.795377 
L 321.134991 170.291752 
L 321.694833 176.110046 
L 321.880715 173.998234 
L 322.066234 173.918421 
L 322.436187 184.230092 
L 322.804703 201.788815 
M 323.53747 246.519511 
L 323.719781 192.731766 
L 324.083355 183.225644 
L 324.264622 175.651785 
L 324.445542 173.723366 
L 324.806352 181.197001 
L 324.986243 188.498865 
M 325.702419 198.326758 
L 325.880622 181.745333 
L 326.05849 180.232114 
L 326.236026 180.591325 
L 326.766649 171.545759 
L 326.942866 174.856928 
L 327.469562 192.35254 
M 330.060064 184.919461 
L 330.230276 185.411439 
L 330.400182 184.832811 
L 330.739086 171.683174 
L 330.908084 170.352261 
L 331.245182 171.477818 
L 331.581086 170.244263 
L 331.748593 171.733587 
L 331.915805 170.844855 
L 332.082723 169.004726 
L 332.249348 169.404672 
L 332.415681 170.550491 
L 332.581723 172.989649 
L 332.912937 172.068257 
L 333.407601 179.796414 
L 333.571918 187.512783 
M 335.521839 190.678164 
L 335.682538 177.059527 
L 335.842966 173.693291 
L 336.163009 180.595368 
L 336.322627 179.96279 
L 336.64106 172.765797 
L 337.274737 169.420506 
L 337.589996 171.637988 
L 337.747234 170.319402 
L 338.060929 173.924038 
L 338.373591 182.774338 
L 338.529537 187.386347 
L 338.685226 185.503566 
L 338.840661 190.049827 
L 338.995842 190.452336 
L 339.150769 189.273345 
L 339.305443 196.537949 
M 340.686285 219.39777 
L 340.990429 190.698568 
L 341.293601 181.114274 
L 341.444825 191.367525 
M 348.011899 187.542653 
L 348.152794 188.298841 
L 348.29348 191.521521 
L 348.433958 187.366691 
L 348.574228 196.95705 
L 348.574228 196.95705 
" clip-path="url(#p5352a31111)" style="fill: none; stroke: #1f77b4; stroke-width: 1.5; stroke-linecap: square"/>
   </g>
   <g id="line2d_44">
    <path d="M 27.629869 202.821016 
L 31.668471 169.073371 
L 35.542186 170.592628 
L 39.26395 169.760348 
L 42.845237 167.507916 
L 46.296266 171.940904 
L 49.62618 168.271714 
L 52.843195 161.643568 
L 55.954714 157.725698 
L 58.967438 154.735692 
L 61.887447 154.395994 
L 64.72028 153.586194 
L 67.470989 153.388999 
L 70.144203 154.520902 
L 72.74417 154.82358 
L 75.274795 158.02502 
L 80.142161 158.516683 
L 82.485313 155.971637 
L 84.771998 157.470628 
L 87.004874 158.30847 
L 89.186414 157.279307 
L 91.318927 160.330581 
L 93.404568 157.918857 
L 97.44317 155.623764 
L 99.399793 153.700769 
L 101.316885 154.968347 
L 103.196012 154.220541 
L 105.038649 151.897699 
L 106.846186 152.761579 
L 108.619936 155.919687 
L 110.361138 154.404141 
L 112.070965 155.339114 
L 113.750528 159.426498 
L 115.400879 158.067164 
L 117.023019 158.375956 
L 118.617894 163.223996 
L 120.186406 158.270212 
L 121.729413 154.032571 
L 123.24773 153.995703 
L 124.742137 155.002365 
L 126.213373 152.530986 
L 127.662146 151.514075 
L 129.089133 152.215529 
L 130.494979 154.670381 
L 131.8803 154.249106 
L 133.245688 153.187038 
L 134.591708 153.994402 
L 135.918902 157.571313 
L 137.22779 157.637179 
L 138.518869 152.988796 
L 139.792617 152.708123 
L 142.289941 159.574728 
L 143.514382 156.017416 
L 144.723224 155.117964 
L 145.91686 157.957138 
L 147.095668 166.113901 
L 148.260012 162.875199 
L 149.410242 157.203647 
L 150.546697 156.91355 
L 152.779573 167.117275 
L 153.876612 161.182395 
L 154.961113 158.15805 
L 156.03336 158.884683 
L 157.093626 164.186084 
L 158.142176 171.300299 
L 159.179267 165.841082 
L 160.205145 159.081296 
L 161.220051 157.854543 
L 162.224218 160.221523 
L 163.217869 164.175235 
L 164.201223 163.109013 
L 165.174492 158.943655 
L 166.137879 155.314109 
L 167.091584 155.036725 
L 168.035799 157.331832 
L 168.970711 160.145771 
L 169.896502 160.368576 
L 170.813348 155.984108 
L 171.721421 154.088931 
L 172.620885 155.10496 
L 173.511904 159.092606 
L 174.394635 163.741499 
L 175.269229 164.073734 
L 176.994601 156.893555 
L 177.845664 156.337582 
L 178.689161 159.007702 
L 179.525227 164.708351 
L 180.35399 168.454313 
L 181.175578 167.234806 
L 181.990114 159.775353 
L 182.797718 157.080701 
L 183.598506 158.275376 
L 185.180089 164.15471 
L 185.961105 164.963845 
L 186.735745 162.383571 
L 187.504112 157.554118 
L 188.266307 154.331333 
L 189.022429 154.30717 
L 189.772574 156.675575 
L 190.516836 158.364395 
L 191.988072 160.212387 
L 192.715223 158.653974 
L 193.436845 155.939881 
L 194.153021 155.438908 
L 195.569358 159.955942 
L 196.964866 164.562976 
L 197.654999 162.529523 
L 198.340149 158.31294 
L 199.020387 155.746389 
L 199.695784 156.559624 
L 200.366407 159.211612 
L 201.032325 159.674985 
L 201.693601 161.580417 
L 203.002489 167.323885 
L 203.650224 167.069372 
L 204.932579 161.663155 
L 205.567316 159.804454 
L 206.197836 160.907993 
L 207.446444 165.019095 
L 208.06464 164.543717 
L 208.678835 162.874322 
L 209.895427 157.331422 
L 210.497923 156.78093 
L 211.096618 158.418975 
L 211.691559 160.841114 
L 212.282794 163.970536 
L 212.870367 168.230842 
L 213.454325 170.484766 
L 214.034711 173.402087 
L 214.611569 170.496675 
L 215.184941 163.342192 
L 215.75487 159.405289 
L 216.321396 160.350266 
L 216.88456 165.587732 
L 217.444401 174.880897 
L 218.000959 192.437241 
L 218.554272 250.20245 
L 219.104376 174.099775 
L 219.651311 166.232479 
L 220.195111 164.444529 
L 220.735812 160.84477 
L 221.27345 158.143037 
L 221.808059 158.358705 
L 222.339673 159.400111 
L 223.394048 163.965988 
L 223.916875 164.711409 
L 224.436837 167.01558 
L 224.953966 164.977219 
L 225.468291 162.427604 
L 225.979844 162.684818 
L 226.488654 159.700476 
L 226.99475 158.595384 
L 227.498162 158.736423 
L 227.998917 159.737779 
L 228.497043 162.232655 
L 228.992568 161.394108 
L 229.485519 160.148496 
L 229.975922 160.085501 
L 230.463804 161.365485 
L 230.949191 162.022554 
L 231.912578 159.775379 
L 232.390628 159.39306 
L 232.866283 159.162871 
L 233.339565 159.457251 
L 233.810498 161.193267 
L 234.279105 164.132098 
L 235.209435 167.77999 
L 235.671201 171.481821 
L 237.49612 160.657121 
L 237.946918 159.110734 
L 238.395584 159.720764 
L 238.84214 162.711028 
L 239.286603 163.163491 
L 239.728995 165.021418 
L 240.169334 168.788947 
L 240.607639 176.780603 
L 241.043928 188.583464 
L 241.910536 173.152989 
L 242.340889 172.849743 
L 242.7693 170.997894 
L 243.195785 166.276585 
L 243.620363 162.829564 
L 244.043049 163.572837 
L 244.46386 168.072496 
L 244.882814 169.582521 
L 245.299926 169.953529 
L 245.715212 176.687612 
L 246.128689 181.38606 
M 247.358419 181.031715 
L 247.764813 178.121161 
L 248.572417 161.252027 
L 248.973655 158.584188 
L 249.373205 157.454794 
L 249.771079 158.249507 
L 250.561857 167.05439 
L 250.954788 170.120018 
L 251.3461 174.780859 
L 251.735804 176.780247 
L 252.123914 197.377519 
L 252.510444 190.126615 
L 252.895405 170.41411 
L 253.278811 166.210497 
L 253.660674 166.96565 
L 254.041006 165.243175 
L 254.41982 162.709394 
L 255.172942 161.823328 
L 255.547273 165.407162 
L 255.920134 177.213213 
L 256.291535 177.036489 
L 257.030004 183.758077 
L 257.397095 180.541713 
L 258.127043 169.613191 
L 258.851419 167.157983 
L 259.211544 163.83432 
L 259.92772 161.179965 
L 260.283791 161.046899 
L 260.638531 161.457525 
L 260.99195 164.403665 
L 261.344057 169.33791 
L 261.694863 171.936696 
L 262.044377 169.516705 
L 262.739565 172.365025 
L 263.085259 168.709001 
L 263.429698 168.144998 
L 263.772891 171.394973 
L 265.133385 161.263118 
L 265.806387 158.959123 
L 266.141106 159.9923 
L 267.4683 168.021309 
L 267.797219 169.572165 
L 268.125001 173.381504 
L 268.451655 171.713231 
L 268.777188 173.369237 
L 269.101608 173.675486 
L 269.424923 170.525996 
L 269.74714 170.59004 
L 270.068267 168.76339 
L 270.707278 163.951316 
L 271.025177 161.890879 
L 271.342015 161.861069 
L 271.657799 164.591074 
L 272.598892 176.63967 
L 272.910527 177.549154 
L 273.221143 173.983737 
L 273.530744 179.368739 
M 275.367437 179.220759 
L 275.670126 169.504046 
L 275.971852 170.1327 
L 276.272622 165.650641 
L 276.871317 164.870158 
L 277.466258 171.408716 
L 277.762336 169.395449 
L 278.057493 170.101258 
L 278.645066 173.041832 
L 278.937494 171.234476 
L 279.229024 170.387912 
L 279.519661 173.823474 
L 279.80941 183.12203 
L 280.098277 209.877687 
M 280.673387 194.147228 
L 280.95964 182.178081 
L 281.245033 182.851371 
L 281.529569 177.779878 
L 281.813255 168.985652 
L 282.378095 165.6634 
L 282.659259 165.067939 
L 282.939592 170.688981 
L 283.2191 172.010456 
L 283.497787 168.951717 
L 283.775658 170.820255 
L 284.052718 171.407438 
L 284.328971 171.090235 
L 284.604422 173.703542 
L 284.879075 177.568937 
L 285.152937 178.513326 
L 285.42601 175.79247 
L 285.698299 175.432191 
L 286.240545 166.938246 
L 286.510511 166.595451 
L 287.048149 164.799462 
L 287.31583 162.090308 
L 287.582758 161.337436 
L 287.848937 161.126972 
L 288.114372 160.377768 
L 288.379066 161.828443 
L 288.643024 165.490082 
L 288.90625 166.76448 
L 289.168747 167.369853 
L 289.691574 172.592386 
L 289.951911 172.262493 
L 290.211536 173.995517 
L 290.470453 177.100062 
L 290.728665 177.955701 
L 290.986176 179.79778 
L 291.499111 185.992347 
L 291.754543 186.202353 
L 292.263353 179.606201 
L 292.516739 171.649249 
L 292.769449 171.595379 
L 293.272861 172.100267 
L 293.523569 181.269246 
L 293.773616 179.602983 
L 294.023006 176.680418 
L 294.519828 176.863575 
L 295.014063 170.840857 
L 295.260218 174.976563 
L 295.505736 177.125078 
L 295.750621 176.493491 
L 295.994876 183.514692 
L 296.238503 183.192155 
L 296.481507 176.83614 
L 296.72389 175.065841 
L 296.965655 174.35127 
L 297.206806 169.640249 
L 297.687277 167.466966 
L 297.926603 164.254097 
L 298.165327 162.67416 
L 298.403453 162.026727 
L 298.640982 160.087391 
L 298.877918 159.517602 
L 299.350022 160.236177 
L 299.81979 163.588899 
L 300.053804 163.778772 
L 300.287243 162.978983 
L 300.752405 164.640581 
L 301.215298 167.827426 
L 301.4459 167.163985 
L 302.134364 168.884782 
L 302.817869 161.899124 
L 303.044614 161.770063 
L 303.496485 159.840468 
L 303.721617 159.468284 
L 303.946215 160.539586 
L 304.170283 163.15109 
L 304.393824 164.287546 
L 304.616839 166.245448 
L 305.061302 174.465115 
L 305.282756 173.633267 
L 305.503694 173.523149 
L 305.724119 174.392323 
L 305.944033 176.389619 
L 306.163438 172.979061 
L 306.382338 177.573394 
M 307.469324 225.700725 
L 307.685235 184.003527 
L 307.900655 176.348433 
L 308.330035 171.440521 
L 308.543999 171.038369 
L 308.757481 173.652888 
L 309.183011 169.521219 
L 309.395062 171.16736 
L 309.60664 167.977292 
L 309.817748 166.847712 
L 310.028387 166.833872 
L 310.238559 171.222099 
L 310.448267 182.029484 
M 312.724976 192.688967 
L 312.929267 181.642701 
L 313.133118 183.636248 
L 313.742058 169.249282 
L 313.944173 167.864674 
L 314.145858 167.748248 
L 314.347116 164.725544 
L 314.547947 165.023738 
L 314.948339 166.674458 
L 315.147904 167.247607 
L 315.347049 166.005946 
L 315.545778 166.37713 
L 315.744091 171.189206 
L 315.941991 182.624072 
M 316.533225 195.495586 
L 316.729487 195.718486 
M 317.315851 204.762695 
L 317.510503 190.967363 
M 318.477818 199.161084 
L 318.670104 182.090911 
L 318.862 175.844215 
L 319.05351 173.489399 
L 319.62573 184.880179 
L 319.815705 173.738486 
L 320.005301 169.482693 
L 320.194519 169.521778 
L 320.383361 169.121626 
L 320.571827 170.01306 
L 320.75992 171.470878 
L 320.947641 174.73159 
L 321.134991 171.468007 
L 321.321972 172.845849 
M 322.25139 190.462493 
L 322.436187 193.579218 
M 323.901742 184.615805 
L 324.083355 196.645777 
M 324.445542 187.958941 
L 324.626118 178.570451 
L 325.165795 175.11141 
L 325.345007 172.900092 
L 325.523881 173.212058 
L 325.702419 170.075872 
L 325.880622 169.641666 
L 326.236026 176.620615 
L 326.41323 178.143692 
L 326.590104 175.210252 
L 326.766649 185.348812 
L 326.942866 216.616198 
L 327.118756 196.132327 
M 330.739086 186.145325 
L 330.908084 171.779037 
L 331.245182 167.198142 
L 331.413283 172.626908 
L 331.581086 173.364106 
L 331.748593 171.092108 
L 332.082723 178.04414 
L 332.249348 177.39305 
L 332.415681 180.629602 
L 332.747474 207.457939 
M 333.407601 182.322181 
L 333.571918 176.515589 
L 333.73595 178.885772 
L 334.063167 195.555584 
L 334.38926 176.108144 
L 334.551887 179.833877 
L 334.714236 193.505015 
L 334.876307 191.14904 
L 335.038102 176.032212 
L 335.199622 172.341753 
L 335.521839 193.000099 
L 335.842966 173.352037 
L 336.163009 171.4 
L 336.322627 170.710031 
L 336.64106 172.404595 
L 336.958427 169.809182 
L 337.116714 170.212413 
L 337.432498 165.960123 
L 338.060929 168.845536 
L 338.373591 171.554178 
L 338.529537 173.63403 
L 338.685226 173.206416 
L 338.840661 172.173334 
L 338.995842 175.662465 
L 339.150769 183.219556 
L 339.305443 196.935375 
L 339.459866 194.82254 
M 342.047321 202.25326 
L 342.197349 188.392868 
L 342.347141 226.482243 
M 348.29348 196.070928 
L 348.574228 195.514665 
M 352.28521 210.149359 
L 352.419905 174.390234 
L 352.55441 175.789899 
L 352.688724 191.803894 
M 353.889071 184.353414 
L 354.02151 195.389039 
M 364.652617 191.142824 
" clip-path="url(#p5352a31111)" style="fill: none; stroke: #ff7f0e; stroke-width: 1.5; stroke-linecap: square"/>
   </g>
   <g id="patch_8">
    <path d="M 37.7 206.55125 
L 37.7 127.24625 
" style="fill: none; stroke: #000000; stroke-width: 0.8; stroke-linejoin: miter; stroke-linecap: square"/>
   </g>
   <g id="patch_9">
    <path d="M 343.148243 206.55125 
L 343.148243 127.24625 
" style="fill: none; stroke: #000000; stroke-width: 0.8; stroke-linejoin: miter; stroke-linecap: square"/>
   </g>
   <g id="patch_10">
    <path d="M 37.7 206.55125 
L 343.148243 206.55125 
" style="fill: none; stroke: #000000; stroke-width: 0.8; stroke-linejoin: miter; stroke-linecap: square"/>
   </g>
   <g id="patch_11">
    <path d="M 37.7 127.24625 
L 343.148243 127.24625 
" style="fill: none; stroke: #000000; stroke-width: 0.8; stroke-linejoin: miter; stroke-linecap: square"/>
   </g>
   <g id="text_10">
    <text style="font-size: 10px; font-family: 'EB Garamond', serif; text-anchor: middle" x="190.424122" y="121.24625" transform="rotate(-0 190.424122 121.24625)">violin = Levaggi</text>
   </g>
  </g>
  <g id="axes_3">
   <g id="patch_12">
    <path d="M 37.7 313.5475 
L 343.148243 313.5475 
L 343.148243 234.2425 
L 37.7 234.2425 
z
" style="fill: #ffffff"/>
   </g>
   <g id="matplotlib.axis_5">
    <g id="xtick_27">
     <g id="line2d_45">
      <path d="M 190.424122 313.5475 
L 190.424122 234.2425 
" clip-path="url(#pa92a25e54d)" style="fill: none; stroke: #b0b0b0; stroke-opacity: 0.3; stroke-width: 0.8; stroke-linecap: square"/>
     </g>
     <g id="line2d_46">
      <g>
       <use xlink:href="#md43c1adf9a" x="190.424122" y="313.5475" style="stroke: #000000; stroke-width: 0.8"/>
      </g>
     </g>
     <g id="text_11">
      <!-- $\mathdefault{10^{3}}$ -->
      <g transform="translate(183.774122 327.5975)">
       <text>
        <tspan x="0" y="-0.3" style="font-size: 10px; font-family: 'EB Garamond'">1</tspan>
        <tspan x="4.799988" y="-0.3" style="font-size: 10px; font-family: 'EB Garamond'">0</tspan>
        <tspan x="9.676538" y="-3.3625" style="font-size: 7px; font-family: 'EB Garamond'">3</tspan>
       </text>
      </g>
     </g>
    </g>
    <g id="xtick_28">
     <g id="line2d_47">
      <g>
       <use xlink:href="#m3acf30a572" x="37.7" y="313.5475" style="stroke: #000000; stroke-width: 0.6"/>
      </g>
     </g>
    </g>
    <g id="xtick_29">
     <g id="line2d_48">
      <g>
       <use xlink:href="#m3acf30a572" x="76.175732" y="313.5475" style="stroke: #000000; stroke-width: 0.6"/>
      </g>
     </g>
    </g>
    <g id="xtick_30">
     <g id="line2d_49">
      <g>
       <use xlink:href="#m3acf30a572" x="103.474699" y="313.5475" style="stroke: #000000; stroke-width: 0.6"/>
      </g>
     </g>
    </g>
    <g id="xtick_31">
     <g id="line2d_50">
      <g>
       <use xlink:href="#m3acf30a572" x="124.649423" y="313.5475" style="stroke: #000000; stroke-width: 0.6"/>
      </g>
     </g>
    </g>
    <g id="xtick_32">
     <g id="line2d_51">
      <g>
       <use xlink:href="#m3acf30a572" x="141.950431" y="313.5475" style="stroke: #000000; stroke-width: 0.6"/>
      </g>
     </g>
    </g>
    <g id="xtick_33">
     <g id="line2d_52">
      <g>
       <use xlink:href="#m3acf30a572" x="156.578226" y="313.5475" style="stroke: #000000; stroke-width: 0.6"/>
      </g>
     </g>
    </g>
    <g id="xtick_34">
     <g id="line2d_53">
      <g>
       <use xlink:href="#m3acf30a572" x="169.249398" y="313.5475" style="stroke: #000000; stroke-width: 0.6"/>
      </g>
     </g>
    </g>
    <g id="xtick_35">
     <g id="line2d_54">
      <g>
       <use xlink:href="#m3acf30a572" x="180.426164" y="313.5475" style="stroke: #000000; stroke-width: 0.6"/>
      </g>
     </g>
    </g>
    <g id="xtick_36">
     <g id="line2d_55">
      <g>
       <use xlink:href="#m3acf30a572" x="256.198821" y="313.5475" style="stroke: #000000; stroke-width: 0.6"/>
      </g>
     </g>
    </g>
    <g id="xtick_37">
     <g id="line2d_56">
      <g>
       <use xlink:href="#m3acf30a572" x="294.674553" y="313.5475" style="stroke: #000000; stroke-width: 0.6"/>
      </g>
     </g>
    </g>
    <g id="xtick_38">
     <g id="line2d_57">
      <g>
       <use xlink:href="#m3acf30a572" x="321.97352" y="313.5475" style="stroke: #000000; stroke-width: 0.6"/>
      </g>
     </g>
    </g>
    <g id="xtick_39">
     <g id="line2d_58">
      <g>
       <use xlink:href="#m3acf30a572" x="343.148243" y="313.5475" style="stroke: #000000; stroke-width: 0.6"/>
      </g>
     </g>
    </g>
    <g id="text_12">
     <text style="font-size: 10px; font-family: 'EB Garamond', serif; text-anchor: middle" x="190.424122" y="341.506875" transform="rotate(-0 190.424122 341.506875)">frequency</text>
    </g>
   </g>
   <g id="matplotlib.axis_6">
    <g id="ytick_7">
     <g id="line2d_59">
      <path d="M 37.7 295.246346 
L 343.148243 295.246346 
" clip-path="url(#pa92a25e54d)" style="fill: none; stroke: #b0b0b0; stroke-opacity: 0.3; stroke-width: 0.8; stroke-linecap: square"/>
     </g>
     <g id="line2d_60">
      <g>
       <use xlink:href="#m0d0fceddf2" x="37.7" y="295.246346" style="stroke: #000000; stroke-width: 0.8"/>
      </g>
     </g>
     <g id="text_13">
      <text style="font-size: 10px; font-family: 'EB Garamond', serif; text-anchor: end" x="30.7" y="298.771346" transform="rotate(-0 30.7 298.771346)">0</text>
     </g>
    </g>
    <g id="ytick_8">
     <g id="line2d_61">
      <path d="M 37.7 264.744423 
L 343.148243 264.744423 
" clip-path="url(#pa92a25e54d)" style="fill: none; stroke: #b0b0b0; stroke-opacity: 0.3; stroke-width: 0.8; stroke-linecap: square"/>
     </g>
     <g id="line2d_62">
      <g>
       <use xlink:href="#m0d0fceddf2" x="37.7" y="264.744423" style="stroke: #000000; stroke-width: 0.8"/>
      </g>
     </g>
     <g id="text_14">
      <text style="font-size: 10px; font-family: 'EB Garamond', serif; text-anchor: end" x="30.7" y="268.269423" transform="rotate(-0 30.7 268.269423)">25</text>
     </g>
    </g>
    <g id="ytick_9">
     <g id="line2d_63">
      <path d="M 37.7 234.2425 
L 343.148243 234.2425 
" clip-path="url(#pa92a25e54d)" style="fill: none; stroke: #b0b0b0; stroke-opacity: 0.3; stroke-width: 0.8; stroke-linecap: square"/>
     </g>
     <g id="line2d_64">
      <g>
       <use xlink:href="#m0d0fceddf2" x="37.7" y="234.2425" style="stroke: #000000; stroke-width: 0.8"/>
      </g>
     </g>
     <g id="text_15">
      <text style="font-size: 10px; font-family: 'EB Garamond', serif; text-anchor: end" x="30.7" y="237.7675" transform="rotate(-0 30.7 237.7675)">50</text>
     </g>
    </g>
    <g id="text_16">
     <text style="font-size: 10px; font-family: 'EB Garamond', serif; text-anchor: middle" x="14.25" y="273.895" transform="rotate(-90 14.25 273.895)">features</text>
    </g>
   </g>
   <g id="line2d_65">
    <path d="M 39.26395 293.346586 
L 42.845237 278.627967 
L 46.296266 277.746393 
L 49.62618 272.826586 
L 52.843195 267.421942 
L 55.954714 265.238187 
L 58.967438 262.904538 
L 61.887447 261.660176 
L 64.72028 259.561144 
L 67.470989 259.63654 
L 70.144203 261.532555 
L 72.74417 262.043705 
L 75.274795 264.04908 
L 77.739683 263.149109 
L 80.142161 264.976483 
L 82.485313 264.791047 
L 84.771998 266.09617 
L 89.186414 263.997804 
L 91.318927 265.203097 
L 93.404568 263.235575 
L 97.44317 263.82584 
L 99.399793 261.859744 
L 101.316885 263.439865 
L 103.196012 262.629083 
L 105.038649 260.70996 
L 106.846186 261.313985 
L 108.619936 261.288894 
L 110.361138 259.001162 
L 112.070965 259.280099 
L 113.750528 262.43059 
L 115.400879 264.118898 
L 117.023019 265.136863 
L 118.617894 270.119887 
L 120.186406 266.174257 
L 121.729413 263.50939 
L 123.24773 264.091054 
L 124.742137 263.123366 
L 126.213373 259.842906 
L 127.662146 259.007266 
L 129.089133 260.173435 
L 130.494979 261.952424 
L 131.8803 260.832932 
L 133.245688 260.16792 
L 134.591708 261.650839 
L 135.918902 265.286947 
L 137.22779 264.789218 
L 138.518869 260.822946 
L 139.792617 260.428875 
L 141.049494 263.983448 
L 142.289941 268.393633 
L 143.514382 265.125702 
L 144.723224 264.135918 
L 145.91686 266.305264 
L 147.095668 271.045116 
L 149.410242 264.432246 
L 150.546697 264.400315 
L 151.669702 268.646343 
L 152.779573 275.408698 
L 153.876612 270.588309 
L 154.961113 266.604712 
L 156.03336 267.121649 
L 157.093626 272.169223 
L 158.142176 274.385499 
L 159.179267 271.449149 
L 160.205145 267.017718 
L 161.220051 265.144742 
L 162.224218 265.799091 
L 164.201223 273.290784 
L 165.174492 268.240921 
L 166.137879 265.375629 
L 167.091584 266.514578 
L 168.035799 271.341192 
L 168.970711 279.612752 
L 169.896502 274.983674 
L 170.813348 267.836745 
L 171.721421 264.961221 
L 172.620885 264.78101 
L 173.511904 267.375174 
L 174.394635 270.980157 
L 175.269229 270.578042 
L 176.135837 268.069457 
L 176.994601 264.62521 
L 177.845664 263.776168 
L 178.689161 266.471012 
L 179.525227 270.236454 
L 180.35399 271.081822 
L 181.990114 263.946522 
L 182.797718 262.120972 
L 183.598506 262.3114 
L 184.392593 264.366537 
L 185.180089 267.145063 
L 185.961105 267.742812 
L 187.504112 262.700407 
L 188.266307 262.148881 
L 189.022429 262.801887 
L 189.772574 264.342489 
L 191.255305 268.54731 
L 191.988072 268.066911 
L 192.715223 265.788333 
L 193.436845 264.04271 
L 194.153021 263.324301 
L 194.863832 263.108035 
L 195.569358 264.007431 
L 196.269678 266.890244 
L 196.964866 271.80839 
L 197.654999 271.661152 
L 198.340149 269.622597 
L 199.020387 268.502525 
L 199.695784 267.672084 
L 200.366407 268.32671 
L 201.032325 270.83388 
L 201.693601 274.046374 
L 202.350302 275.844729 
L 203.002489 275.169962 
L 203.650224 273.846612 
L 204.293568 270.920232 
L 204.932579 269.010811 
L 205.567316 268.985992 
L 206.197836 272.348322 
L 206.824193 278.434712 
L 207.446444 279.229951 
L 208.06464 274.959233 
L 208.678835 273.789305 
L 209.289081 271.144642 
L 209.895427 267.21344 
L 210.497923 264.812247 
L 211.096618 264.510939 
L 211.691559 266.781735 
L 212.282794 273.338881 
L 212.870367 276.589672 
L 214.611569 271.204356 
L 215.184941 269.530836 
L 216.321396 265.673218 
L 216.88456 266.702357 
L 217.444401 271.008145 
L 218.000959 277.535776 
L 218.554272 279.525161 
L 219.651311 268.514019 
L 220.195111 266.905161 
L 220.735812 266.234461 
L 221.27345 264.370156 
L 221.808059 263.568419 
L 222.339673 263.845015 
L 222.868325 265.226808 
L 223.394048 267.602601 
L 223.916875 268.601095 
L 224.436837 269.93392 
L 224.953966 269.121167 
L 226.488654 263.793553 
L 226.99475 263.48411 
L 227.498162 263.965471 
L 228.497043 267.132589 
L 228.992568 270.064169 
L 229.485519 270.963307 
L 229.975922 270.666751 
L 230.463804 270.686213 
L 231.432107 266.304926 
L 232.390628 263.10296 
L 232.866283 262.454172 
L 233.339565 262.518224 
L 233.810498 262.99575 
L 234.279105 264.002479 
L 234.74541 266.099668 
L 235.671201 272.463686 
L 236.130732 272.952231 
L 236.588047 273.047436 
L 237.04317 272.980661 
L 237.946918 273.722635 
L 238.395584 272.572693 
L 238.84214 271.762213 
L 239.286603 272.584322 
L 239.728995 275.38101 
L 240.169334 279.35464 
L 240.607639 294.124123 
L 241.043928 322.346569 
L 241.478221 285.96003 
L 241.910536 278.58128 
L 242.340889 275.223132 
L 242.7693 274.086391 
L 243.195785 271.199585 
L 243.620363 269.610684 
L 244.043049 270.173408 
L 244.46386 272.754689 
L 244.882814 278.143918 
L 245.299926 292.150828 
M 246.950277 290.551124 
L 247.358419 281.393077 
L 248.169474 270.879542 
L 248.572417 269.177236 
L 248.973655 268.794601 
L 249.771079 268.33077 
L 250.167292 268.862797 
L 250.561857 271.344171 
L 250.954788 275.250654 
L 251.3461 276.481378 
L 251.735804 274.792344 
L 252.895405 272.193139 
L 253.660674 269.349999 
L 254.041006 268.387861 
L 254.41982 268.021411 
L 254.797128 268.247909 
L 255.172942 267.009669 
L 255.547273 267.745802 
L 256.291535 274.316994 
L 256.661488 276.431949 
L 257.397095 278.926799 
L 257.762771 276.862578 
L 258.127043 271.452635 
L 258.489922 268.477921 
L 258.851419 267.711607 
L 259.211544 267.466139 
L 259.570308 267.73035 
L 259.92772 268.255621 
L 260.283791 268.064728 
L 260.638531 268.045466 
L 260.99195 269.120055 
L 261.344057 271.541466 
L 261.694863 275.690667 
L 262.392608 290.981541 
L 263.085259 277.755949 
L 263.429698 273.716869 
L 264.114848 269.599184 
L 264.455577 267.20607 
L 264.795086 265.736645 
L 265.133385 264.840133 
L 265.470483 264.923436 
L 266.141106 264.731289 
L 266.474649 264.816536 
L 266.807024 265.536756 
L 267.138238 265.668035 
L 267.4683 266.622866 
L 268.125001 271.421352 
L 268.451655 272.637263 
L 269.101608 269.928503 
L 269.74714 267.410314 
L 270.38831 266.631176 
L 271.025177 265.126081 
L 271.342015 265.478301 
L 271.657799 266.99306 
L 271.972535 267.85647 
L 272.28623 268.157587 
L 272.598892 268.215034 
L 272.910527 268.523492 
L 273.221143 269.925829 
L 273.530744 270.570369 
L 273.839339 269.602886 
L 274.146934 269.307559 
L 274.453534 270.05567 
L 274.759148 272.315338 
L 275.06378 273.413197 
L 275.367437 272.173095 
L 275.670126 271.663181 
L 275.971852 271.454362 
L 276.272622 271.423384 
L 276.871317 273.428177 
L 277.169254 275.764405 
L 277.762336 284.401352 
L 278.057493 283.430636 
L 278.351734 282.041883 
L 278.645066 282.594619 
L 278.937494 282.852835 
L 279.229024 280.170494 
L 279.519661 279.854371 
L 279.80941 280.185856 
L 280.098277 282.682048 
L 280.386268 287.797982 
M 280.95964 309.960037 
L 281.245033 281.14892 
L 281.529569 274.68797 
L 282.096095 269.805959 
L 282.378095 268.731557 
L 282.659259 268.743842 
L 283.2191 270.605336 
L 283.497787 270.530945 
L 283.775658 270.778881 
L 284.328971 273.635541 
L 284.604422 274.228235 
L 284.879075 275.723735 
L 285.152937 277.903393 
L 285.42601 277.73082 
L 285.698299 275.549644 
L 285.96981 275.100318 
L 286.240545 276.12683 
L 286.510511 277.883017 
L 286.779711 278.044009 
L 287.582758 273.178459 
L 287.848937 271.618035 
L 288.114372 271.470892 
L 288.379066 271.697876 
L 288.643024 271.480503 
L 288.90625 273.59501 
L 289.168747 277.127648 
L 289.430521 278.157337 
L 289.691574 282.04044 
L 290.211536 297.662931 
L 290.470453 297.73999 
M 291.499111 302.346193 
L 291.754543 284.86215 
L 292.263353 278.085308 
L 292.516739 275.233208 
L 292.769449 275.328296 
L 293.021489 276.42095 
L 293.272861 275.702482 
L 293.523569 276.02225 
L 293.773616 276.879295 
L 294.271742 276.482631 
L 294.519828 276.104367 
L 295.014063 274.5311 
L 295.260218 273.870859 
L 295.505736 271.521962 
L 295.750621 270.95824 
L 295.994876 270.80743 
L 296.481507 271.901507 
L 296.965655 267.331636 
L 297.206806 266.717284 
L 297.447345 266.534521 
L 298.165327 265.540477 
L 298.403453 265.380283 
L 298.640982 265.030835 
L 299.350022 265.425755 
L 300.053804 267.812439 
L 300.752405 271.122102 
L 300.984134 274.743577 
L 301.4459 283.024544 
L 301.675944 285.277995 
L 301.905431 292.717861 
M 302.817869 295.497805 
L 303.270819 276.295116 
L 303.721617 271.606288 
L 303.946215 269.86224 
L 304.170283 270.180957 
L 304.616839 274.499435 
L 304.839331 275.067909 
L 305.061302 277.870066 
L 305.282756 284.356265 
L 305.503694 301.174979 
M 307.25292 325.48447 
L 307.469324 291.073853 
L 307.685235 284.095338 
L 307.900655 281.908599 
L 308.115588 281.53872 
L 308.757481 272.55029 
L 308.970484 271.630608 
L 309.183011 272.405478 
L 309.395062 272.317828 
L 309.817748 271.062826 
L 310.028387 272.038863 
L 310.448267 277.314841 
L 310.866298 290.984245 
L 311.074625 285.631558 
L 311.282495 284.409724 
L 311.489911 289.476965 
L 311.903388 308.088481 
L 312.109453 300.780098 
L 312.520245 279.480092 
L 312.724976 276.986046 
L 312.929267 276.623002 
L 313.133118 275.778047 
L 313.539512 272.172662 
L 313.742058 271.561479 
L 314.145858 269.605309 
L 314.347116 269.702798 
L 314.748354 268.965956 
L 315.147904 269.813441 
L 315.545778 269.944471 
L 315.744091 270.755421 
L 315.941991 272.54205 
L 316.139478 273.150226 
L 316.336556 274.496535 
L 316.729487 284.045348 
L 316.925345 292.820451 
M 318.670104 289.020184 
L 318.862 279.836459 
L 319.05351 276.422174 
L 319.815705 272.518746 
L 320.005301 271.608785 
L 320.194519 271.26824 
L 320.383361 271.228055 
L 320.571827 271.830354 
L 320.75992 273.17653 
L 320.947641 272.779059 
L 321.134991 271.431971 
L 321.321972 270.973592 
L 321.508586 273.015449 
L 321.694833 276.73838 
L 322.066234 279.398153 
L 322.620624 289.867727 
L 322.988426 279.210776 
L 323.171794 280.52746 
L 323.53747 284.009724 
L 323.901742 287.300029 
L 324.083355 285.178331 
L 324.445542 279.853944 
L 324.626118 278.788743 
L 324.986243 280.961813 
L 325.165795 281.654669 
L 325.345007 281.280935 
L 325.523881 281.865031 
L 325.702419 282.004713 
L 326.236026 276.922737 
L 326.41323 277.435893 
L 326.590104 278.625018 
L 326.942866 282.724255 
L 327.118756 281.934941 
L 327.294321 284.464244 
L 327.469562 298.515569 
M 330.908084 293.641842 
L 331.076783 289.163146 
L 331.245182 289.958178 
L 331.413283 286.152509 
L 331.581086 285.011496 
L 331.748593 285.598779 
L 331.915805 283.996864 
L 332.082723 284.771433 
L 332.415681 287.228572 
L 332.581723 288.139468 
L 332.747474 287.980631 
L 332.912937 286.20865 
L 333.078112 288.568085 
L 333.242999 297.11235 
L 333.407601 322.2764 
M 335.521839 326.359692 
L 335.842966 279.988409 
L 336.003122 277.071111 
L 336.163009 277.982807 
L 336.322627 278.197593 
L 336.799876 272.580249 
L 337.274737 270.41321 
L 337.432498 270.585139 
L 337.589996 270.364906 
L 337.747234 270.436977 
L 337.904211 270.956321 
L 338.840661 279.750108 
L 339.150769 285.930349 
L 339.305443 296.799599 
M 341.444825 300.611825 
L 341.595808 294.029455 
L 341.746551 296.472371 
L 341.897055 309.042721 
L 342.197349 293.105905 
L 342.347141 300.670137 
L 342.347141 300.670137 
" clip-path="url(#pa92a25e54d)" style="fill: none; stroke: #1f77b4; stroke-width: 1.5; stroke-linecap: square"/>
   </g>
   <g id="line2d_66">
    <path d="M 42.845237 285.974868 
L 46.296266 279.638609 
L 49.62618 273.946948 
L 52.843195 270.105612 
L 58.967438 262.099455 
L 61.887447 261.742998 
L 64.72028 261.83894 
L 67.470989 261.503782 
L 70.144203 261.57583 
L 72.74417 261.039558 
L 75.274795 264.855045 
L 80.142161 266.754082 
L 82.485313 263.770459 
L 84.771998 265.144305 
L 87.004874 266.626345 
L 89.186414 265.498324 
L 91.318927 268.072137 
L 93.404568 263.584546 
L 95.445352 263.59284 
L 97.44317 264.44356 
L 99.399793 261.221148 
L 101.316885 262.335187 
L 103.196012 261.875585 
L 105.038649 259.187158 
L 106.846186 260.085442 
L 108.619936 262.085674 
L 110.361138 260.052674 
L 112.070965 260.603118 
L 113.750528 264.13051 
L 115.400879 263.135928 
L 117.023019 262.588749 
L 118.617894 267.109467 
L 120.186406 265.308468 
L 121.729413 260.689039 
L 123.24773 260.611063 
L 124.742137 263.196316 
L 126.213373 259.248678 
L 127.662146 257.245535 
L 129.089133 257.927849 
L 130.494979 261.540739 
L 131.8803 261.359276 
L 133.245688 259.278453 
L 134.591708 259.867422 
L 135.918902 264.637823 
L 137.22779 267.116504 
L 138.518869 260.907867 
L 139.792617 260.331856 
L 141.049494 264.465063 
L 142.289941 269.445397 
L 143.514382 264.004236 
L 144.723224 262.895195 
L 145.91686 265.861379 
L 147.095668 274.443498 
L 148.260012 267.106609 
L 149.410242 262.818189 
L 150.546697 262.715791 
L 151.669702 267.81273 
L 152.779573 275.511561 
L 153.876612 269.224256 
L 154.961113 264.390893 
L 156.03336 263.590876 
L 157.093626 267.104929 
L 158.142176 276.540326 
L 159.179267 274.786156 
L 160.205145 267.231801 
L 161.220051 265.107371 
L 162.224218 267.392667 
L 163.217869 274.926334 
L 164.201223 284.934183 
L 165.174492 274.980011 
L 166.137879 267.581913 
L 167.091584 267.264834 
L 168.035799 273.239995 
L 168.970711 283.015911 
L 169.896502 281.447536 
L 170.813348 268.734152 
L 171.721421 263.670968 
L 172.620885 263.133247 
L 173.511904 265.975973 
L 174.394635 271.846252 
L 175.269229 274.652456 
L 176.135837 271.226405 
L 176.994601 266.279056 
L 177.845664 263.848867 
L 178.689161 266.11458 
L 179.525227 273.264115 
L 180.35399 275.324517 
L 181.175578 271.775113 
L 181.990114 265.982142 
L 182.797718 262.577931 
L 183.598506 262.704295 
L 184.392593 265.693829 
L 185.180089 270.646028 
L 185.961105 274.327713 
L 186.735745 270.392566 
L 187.504112 262.957136 
L 188.266307 260.351489 
L 189.022429 260.137048 
L 189.772574 261.980002 
L 190.516836 266.371319 
L 191.255305 269.049981 
L 191.988072 268.806197 
L 193.436845 262.261739 
L 194.153021 260.802903 
L 194.863832 261.880746 
L 195.569358 265.378629 
L 196.964866 275.854251 
L 197.654999 278.207734 
L 198.340149 278.634752 
L 199.020387 268.218936 
L 199.695784 265.037497 
L 200.366407 265.417717 
L 201.032325 267.124828 
L 202.350302 274.081474 
L 203.002489 276.927911 
L 203.650224 276.074236 
L 204.293568 270.381389 
L 204.932579 267.224026 
L 205.567316 266.442777 
L 206.197836 269.873294 
L 206.824193 282.919983 
M 209.289081 279.78223 
L 209.895427 271.334353 
L 210.497923 267.755646 
L 211.096618 267.60156 
L 211.691559 268.421269 
L 212.282794 269.8536 
L 212.870367 275.068444 
M 214.611569 281.827323 
L 215.184941 271.923089 
L 215.75487 268.110949 
L 216.321396 266.281178 
L 216.88456 266.654689 
L 217.444401 272.081521 
L 218.000959 292.344478 
M 219.104376 289.148264 
L 219.651311 272.191393 
L 220.195111 267.276428 
L 221.27345 263.872838 
L 221.808059 263.838637 
L 222.339673 264.393446 
L 222.868325 267.274913 
L 223.916875 276.868279 
L 224.953966 269.540024 
L 225.468291 268.828109 
L 225.979844 267.389191 
L 226.488654 264.502043 
L 226.99475 263.304362 
L 227.498162 262.411188 
L 227.998917 262.797808 
L 228.497043 265.20639 
L 229.485519 272.644308 
L 229.975922 277.840055 
L 230.463804 281.377394 
L 230.949191 271.51554 
L 231.432107 268.301612 
L 232.866283 264.637483 
L 233.339565 266.645722 
L 234.279105 272.109307 
L 234.74541 278.01713 
L 235.209435 286.764482 
L 235.671201 292.941235 
L 236.130732 282.921991 
L 236.588047 278.08378 
L 237.04317 276.396961 
L 237.946918 269.227521 
L 238.395584 268.432775 
L 238.84214 269.796993 
L 239.286603 272.181457 
L 239.728995 278.695683 
L 240.169334 287.892023 
L 240.607639 294.140608 
L 241.043928 298.224239 
L 241.910536 276.411354 
L 242.340889 273.909784 
L 242.7693 274.675411 
L 243.195785 273.229216 
L 243.620363 268.674715 
L 244.043049 267.148644 
L 244.46386 269.00967 
L 245.299926 285.236099 
L 245.715212 299.327795 
L 246.128689 303.982668 
L 246.950277 284.361691 
L 247.358419 278.416334 
L 247.764813 282.494535 
L 248.169474 282.306537 
L 248.572417 272.999234 
L 248.973655 269.075732 
L 249.373205 267.333386 
L 249.771079 267.375195 
L 250.167292 267.155334 
L 250.561857 269.325906 
L 251.3461 274.620023 
L 251.735804 276.466278 
L 252.123914 277.364654 
L 252.510444 277.609631 
L 252.895405 271.670325 
L 253.278811 268.884807 
L 253.660674 268.735876 
L 254.041006 265.629456 
L 254.41982 264.925105 
L 254.797128 265.323213 
L 255.172942 264.466694 
L 255.547273 264.385373 
L 255.920134 268.586667 
L 256.661488 281.130923 
L 257.397095 288.136657 
L 257.762771 290.50709 
L 258.489922 273.577361 
L 258.851419 270.933452 
L 259.211544 269.732204 
L 259.570308 269.474432 
L 259.92772 268.587821 
L 260.283791 267.18366 
L 260.638531 266.776792 
L 260.99195 266.975716 
L 261.344057 269.005119 
L 261.694863 273.825452 
L 262.044377 282.176782 
L 262.392608 305.457457 
L 262.739565 310.135686 
L 263.085259 278.560094 
L 263.429698 273.108934 
L 263.772891 273.15213 
L 264.114848 276.07627 
L 264.455577 275.768464 
L 265.133385 267.822825 
L 265.470483 266.614602 
L 266.141106 265.047085 
L 267.138238 268.665698 
L 267.797219 272.483562 
L 268.451655 274.251081 
L 269.101608 277.243647 
L 269.424923 273.087257 
L 269.74714 270.596509 
L 270.068267 270.024107 
L 270.38831 266.9928 
L 270.707278 266.290461 
L 271.025177 266.56641 
L 271.342015 264.552958 
L 271.657799 264.07522 
L 271.972535 267.347435 
L 272.28623 276.181029 
L 272.598892 277.886511 
L 272.910527 278.414319 
L 273.221143 280.092606 
L 273.530744 280.724862 
L 273.839339 280.922159 
L 274.146934 276.339265 
L 274.453534 274.962504 
L 274.759148 275.196987 
L 275.06378 275.288547 
L 275.367437 275.965413 
L 275.670126 274.598826 
L 276.272622 268.085323 
L 276.572442 267.349048 
L 276.871317 267.984913 
L 277.466258 271.720263 
L 277.762336 276.835691 
L 278.057493 288.689631 
M 280.098277 295.618164 
L 280.673387 278.595685 
L 280.95964 277.327109 
L 281.245033 275.345643 
L 281.529569 270.390953 
L 281.813255 267.74333 
L 282.096095 268.264552 
L 282.378095 270.63157 
L 282.659259 270.451174 
L 282.939592 271.541696 
L 283.2191 275.21353 
L 283.497787 283.538298 
L 283.775658 299.93457 
L 284.052718 293.516492 
L 284.328971 295.738593 
M 285.42601 294.026104 
L 285.698299 284.595064 
L 286.240545 273.19069 
L 286.510511 273.588117 
L 286.779711 275.072998 
L 287.048149 271.056896 
L 287.31583 269.766633 
L 287.582758 269.653876 
L 287.848937 267.959994 
L 288.379066 268.125405 
L 288.643024 269.448399 
L 289.168747 274.992703 
L 289.430521 278.847663 
L 289.951911 292.282407 
L 290.211536 286.10746 
L 290.470453 286.045689 
L 290.728665 297.74219 
M 291.24299 283.155474 
L 291.499111 280.47059 
L 291.754543 293.409523 
M 292.263353 297.83649 
L 292.516739 277.878306 
L 292.769449 269.587141 
L 293.272861 267.291317 
L 293.523569 268.179103 
L 293.773616 270.95343 
L 294.023006 275.631696 
L 294.271742 283.248666 
L 294.519828 286.851177 
L 295.014063 290.090806 
L 295.260218 292.49888 
L 295.750621 284.572212 
L 295.994876 286.663265 
L 296.238503 286.317463 
L 296.481507 294.572081 
L 296.965655 282.987126 
L 297.206806 274.842055 
L 297.447345 272.019483 
L 297.687277 274.414781 
L 298.640982 264.472488 
L 298.877918 264.560816 
L 299.114264 265.302183 
L 299.585197 269.650548 
L 299.81979 270.798556 
L 300.520109 277.017109 
L 300.984134 281.708013 
L 301.215298 281.921112 
L 301.4459 286.325039 
L 301.675944 286.276703 
L 301.905431 283.223871 
L 302.134364 283.249083 
L 302.362746 282.03471 
L 302.59058 278.577849 
L 302.817869 283.009601 
L 303.044614 293.777487 
L 303.270819 287.912441 
L 303.496485 278.837551 
L 303.946215 271.415374 
L 304.170283 271.103224 
L 304.393824 272.457194 
L 304.616839 275.745347 
L 305.061302 289.901095 
L 305.282756 293.199803 
M 306.818627 291.114452 
L 307.036022 286.846803 
L 307.25292 306.402486 
M 307.685235 302.956058 
L 307.900655 286.851177 
L 308.543999 274.683714 
L 308.757481 275.154992 
L 308.970484 273.942873 
L 309.183011 270.965413 
L 309.395062 269.671189 
L 309.60664 270.340429 
L 310.238559 267.758729 
L 310.657513 274.34827 
L 311.074625 286.409164 
L 311.282495 295.813176 
M 313.336533 284.248271 
L 313.539512 277.701301 
L 313.742058 276.231724 
L 314.145858 270.931898 
L 314.547947 267.564199 
L 314.748354 267.710013 
L 314.948339 268.037289 
L 315.147904 266.374123 
L 315.347049 266.289972 
L 315.545778 269.347707 
L 315.744091 270.660114 
L 315.941991 270.405516 
L 316.533225 277.928543 
L 316.729487 281.561355 
L 316.925345 287.82155 
M 319.815705 297.1403 
L 320.005301 277.955705 
L 320.194519 272.769862 
L 320.383361 272.686377 
L 320.571827 273.552309 
L 320.75992 273.186613 
L 320.947641 274.398289 
L 321.134991 273.61297 
L 321.321972 271.62153 
L 321.508586 273.628429 
L 321.694833 279.217215 
L 321.880715 292.260393 
M 322.804703 325.45436 
L 322.988426 322.298181 
M 323.53747 287.988779 
L 323.719781 281.038651 
L 323.901742 285.079999 
L 324.264622 343.495906 
L 324.445542 289.187081 
L 324.806352 275.624826 
L 324.986243 275.41361 
L 325.165795 274.070439 
L 325.345007 271.61669 
L 325.523881 272.475992 
L 325.702419 274.136961 
L 325.880622 274.309289 
L 326.41323 276.547089 
L 326.590104 276.419014 
L 326.766649 276.735588 
L 326.942866 278.367805 
L 327.294321 292.950346 
L 327.469562 321.615665 
M 330.569785 295.863748 
L 330.739086 297.965859 
L 330.908084 307.500329 
L 331.076783 285.085035 
L 331.413283 278.538658 
L 331.581086 279.723399 
L 331.748593 278.308112 
L 331.915805 280.337677 
L 332.249348 286.737407 
L 332.415681 286.456626 
L 332.581723 287.143019 
L 332.747474 303.638635 
M 336.003122 304.954835 
L 336.322627 282.372773 
L 336.481977 285.103461 
L 336.64106 295.977917 
L 336.799876 290.367422 
L 337.116714 276.31628 
L 337.274737 274.94796 
L 337.589996 276.658824 
L 338.060929 289.663298 
L 338.217389 302.187804 
M 341.293601 308.155925 
L 341.444825 291.905914 
M 341.897055 293.604452 
L 342.047321 296.480452 
M 347.587954 293.663337 
L 347.729479 283.773676 
L 347.870794 317.160304 
M 348.714291 291.24082 
L 348.854148 298.362093 
M 352.822848 283.805944 
L 352.956783 278.611264 
L 353.090529 283.276734 
L 353.224087 301.547494 
M 353.623636 293.841699 
L 353.756446 284.724102 
L 353.889071 289.454894 
L 354.153765 284.419034 
L 354.285836 315.124768 
L 354.417723 305.230199 
M 376.013258 310.092609 
L 376.11817 284.253141 
L 376.222966 288.319314 
M 381.121748 309.928645 
" clip-path="url(#pa92a25e54d)" style="fill: none; stroke: #ff7f0e; stroke-width: 1.5; stroke-linecap: square"/>
   </g>
   <g id="patch_13">
    <path d="M 37.7 313.5475 
L 37.7 234.2425 
" style="fill: none; stroke: #000000; stroke-width: 0.8; stroke-linejoin: miter; stroke-linecap: square"/>
   </g>
   <g id="patch_14">
    <path d="M 343.148243 313.5475 
L 343.148243 234.2425 
" style="fill: none; stroke: #000000; stroke-width: 0.8; stroke-linejoin: miter; stroke-linecap: square"/>
   </g>
   <g id="patch_15">
    <path d="M 37.7 313.5475 
L 343.148243 313.5475 
" style="fill: none; stroke: #000000; stroke-width: 0.8; stroke-linejoin: miter; stroke-linecap: square"/>
   </g>
   <g id="patch_16">
    <path d="M 37.7 234.2425 
L 343.148243 234.2425 
" style="fill: none; stroke: #000000; stroke-width: 0.8; stroke-linejoin: miter; stroke-linecap: square"/>
   </g>
   <g id="text_17">
    <text style="font-size: 10px; font-family: 'EB Garamond', serif; text-anchor: middle" x="190.424122" y="228.2425" transform="rotate(-0 190.424122 228.2425)">violin = Stoppani</text>
   </g>
  </g>
  <g id="legend_1">
   <g id="patch_17">
    <path d="M 350.425443 199.628437 
L 387.225443 199.628437 
Q 389.225443 199.628437 389.225443 197.628437 
L 389.225443 153.928437 
Q 389.225443 151.928437 387.225443 151.928437 
L 350.425443 151.928437 
Q 348.425443 151.928437 348.425443 153.928437 
L 348.425443 197.628437 
Q 348.425443 199.628437 350.425443 199.628437 
z
" style="fill: #ffffff; opacity: 0.8; stroke: #cccccc; stroke-linejoin: miter"/>
   </g>
   <g id="text_18">
    <text style="font-size: 10px; font-family: 'EB Garamond', serif; text-anchor: start" x="355.691068" y="162.978437" transform="rotate(-0 355.691068 162.978437)">session</text>
   </g>
   <g id="line2d_67">
    <path d="M 352.425443 174.378437 
L 362.425443 174.378437 
L 372.425443 174.378437 
" style="fill: none; stroke: #1f77b4; stroke-width: 1.5; stroke-linecap: square"/>
   </g>
   <g id="text_19">
    <text style="font-size: 10px; font-family: 'EB Garamond', serif; text-anchor: start" x="380.425443" y="177.878437" transform="rotate(-0 380.425443 177.878437)">1</text>
   </g>
   <g id="line2d_68">
    <path d="M 352.425443 189.278437 
L 362.425443 189.278437 
L 372.425443 189.278437 
" style="fill: none; stroke: #ff7f0e; stroke-width: 1.5; stroke-linecap: square"/>
   </g>
   <g id="text_20">
    <text style="font-size: 10px; font-family: 'EB Garamond', serif; text-anchor: start" x="380.425443" y="192.778437" transform="rotate(-0 380.425443 192.778437)">3</text>
   </g>
  </g>
 </g>
 <defs>
  <clipPath id="p4afb913ceb">
   <rect x="37.7" y="20.25" width="305.448243" height="79.305"/>
  </clipPath>
  <clipPath id="p5352a31111">
   <rect x="37.7" y="127.24625" width="305.448243" height="79.305"/>
  </clipPath>
  <clipPath id="pa92a25e54d">
   <rect x="37.7" y="234.2425" width="305.448243" height="79.305"/>
  </clipPath>
 </defs>
</svg>
